<?xml version="1.0" encoding="UTF-8"?><svg id="b" xmlns="http://www.w3.org/2000/svg" width="72" height="64.5" viewBox="0 0 72 64.5"><g id="c"><path d="m18.75,0h49.5c2.07107,0,3.75,1.67893,3.75,3.75h0c0,2.07107-1.67893,3.75-3.75,3.75H18.75c-2.07107,0-3.75-1.67893-3.75-3.75h0c0-2.07107,1.67893-3.75,3.75-3.75Z"/><path d="m3.75,28.5h64.5c2.07107,0,3.75,1.67893,3.75,3.75h0c0,2.07107-1.67893,3.75-3.75,3.75H3.75c-2.07107,0-3.75-1.67893-3.75-3.75h0c0-2.07107,1.67893-3.75,3.75-3.75Z"/><path d="m33.75,57h34.5c2.07107,0,3.75,1.67893,3.75,3.75h0c0,2.07107-1.67893,3.75-3.75,3.75h-34.5c-2.07107,0-3.75-1.67893-3.75-3.75h0c0-2.07107,1.67893-3.75,3.75-3.75Z"/></g></svg>