<svg width="17" height="22" viewBox="0 0 17 22" fill="none" xmlns="http://www.w3.org/2000/svg">
<g clip-path="url(#clip0_752_1510)">
<path d="M14.4919 8.25C14.4919 4.83398 11.8044 2.0625 8.49194 2.0625C5.17944 2.0625 2.49194 4.83398 2.49194 8.25C2.49194 8.95039 2.81278 10.0547 3.52111 11.4898C4.20444 12.8734 5.13778 14.343 6.10861 15.7137C6.95444 16.9125 7.80444 18.0039 8.49194 18.8547C9.17944 18.0039 10.0294 16.9125 10.8753 15.7137C11.8419 14.343 12.7753 12.8691 13.4628 11.4898C14.1711 10.0547 14.4919 8.95039 14.4919 8.25ZM16.4919 8.25C16.4919 11.8207 12.0919 17.6602 9.81694 20.4359C9.02528 21.4027 8.49194 22 8.49194 22C8.49194 22 7.95861 21.4027 7.16694 20.4359C4.89194 17.6602 0.491943 11.8207 0.491943 8.25C0.491943 3.69531 4.07528 0 8.49194 0C12.9086 0 16.4919 3.69531 16.4919 8.25ZM9.82528 8.25C9.82528 7.88533 9.6848 7.53559 9.43475 7.27773C9.1847 7.01987 8.84557 6.875 8.49194 6.875C8.13832 6.875 7.79918 7.01987 7.54913 7.27773C7.29909 7.53559 7.15861 7.88533 7.15861 8.25C7.15861 8.61467 7.29909 8.96441 7.54913 9.22227C7.79918 9.48013 8.13832 9.625 8.49194 9.625C8.84557 9.625 9.1847 9.48013 9.43475 9.22227C9.6848 8.96441 9.82528 8.61467 9.82528 8.25ZM5.15861 8.25C5.15861 7.33832 5.5098 6.46398 6.13492 5.81932C6.76004 5.17466 7.60789 4.8125 8.49194 4.8125C9.376 4.8125 10.2238 5.17466 10.849 5.81932C11.4741 6.46398 11.8253 7.33832 11.8253 8.25C11.8253 9.16168 11.4741 10.036 10.849 10.6807C10.2238 11.3253 9.376 11.6875 8.49194 11.6875C7.60789 11.6875 6.76004 11.3253 6.13492 10.6807C5.5098 10.036 5.15861 9.16168 5.15861 8.25Z" fill="#1B365D"/>
</g>
<defs>
<clipPath id="clip0_752_1510">
<rect width="16" height="22" fill="white" transform="translate(0.491943)"/>
</clipPath>
</defs>
</svg>
