<svg width="20" height="22" viewBox="0 0 20 22" fill="none" xmlns="http://www.w3.org/2000/svg">
<path d="M3.33333 1.83333C3.77536 1.83333 4.19928 2.02649 4.51184 2.3703C4.82441 2.71412 5 3.18044 5 3.66667C5 4.1529 4.82441 4.61921 4.51184 4.96303C4.19928 5.30685 3.77536 5.5 3.33333 5.5C2.89131 5.5 2.46738 5.30685 2.15482 4.96303C1.84226 4.61921 1.66667 4.1529 1.66667 3.66667C1.66667 3.18044 1.84226 2.71412 2.15482 2.3703C2.46738 2.02649 2.89131 1.83333 3.33333 1.83333ZM3.33333 7.33333C4.21739 7.33333 5.06523 6.94703 5.69036 6.25939C6.31548 5.57176 6.66667 4.63913 6.66667 3.66667C6.66667 2.69421 6.31548 1.76157 5.69036 1.07394C5.06523 0.386308 4.21739 0 3.33333 0C2.44928 0 1.60143 0.386308 0.976311 1.07394C0.35119 1.76157 0 2.69421 0 3.66667C0 4.63913 0.35119 5.57176 0.976311 6.25939C1.60143 6.94703 2.44928 7.33333 3.33333 7.33333ZM16.6667 16.5C17.1087 16.5 17.5326 16.6932 17.8452 17.037C18.1577 17.3808 18.3333 17.8471 18.3333 18.3333C18.3333 18.8196 18.1577 19.2859 17.8452 19.6297C17.5326 19.9735 17.1087 20.1667 16.6667 20.1667C16.2246 20.1667 15.8007 19.9735 15.4882 19.6297C15.1756 19.2859 15 18.8196 15 18.3333C15 17.8471 15.1756 17.3808 15.4882 17.037C15.8007 16.6932 16.2246 16.5 16.6667 16.5ZM16.6667 22C17.5507 22 18.3986 21.6137 19.0237 20.9261C19.6488 20.2384 20 19.3058 20 18.3333C20 17.3609 19.6488 16.4282 19.0237 15.7406C18.3986 15.053 17.5507 14.6667 16.6667 14.6667C15.7826 14.6667 14.9348 15.053 14.3096 15.7406C13.6845 16.4282 13.3333 17.3609 13.3333 18.3333C13.3333 19.3058 13.6845 20.2384 14.3096 20.9261C14.9348 21.6137 15.7826 22 16.6667 22ZM19.7552 1.56406C20.0781 1.20885 20.0781 0.624479 19.7552 0.269271C19.4323 -0.0859377 18.901 -0.0859377 18.5781 0.269271L0.244792 20.4359C-0.078125 20.7911 -0.078125 21.3755 0.244792 21.7307C0.567708 22.0859 1.09896 22.0859 1.42187 21.7307L19.7552 1.56406Z" fill="#1B365D"/>
</svg>
