<?xml version="1.0" encoding="UTF-8"?><svg id="b" xmlns="http://www.w3.org/2000/svg" width="471.64966" height="80.784" viewBox="0 0 471.64966 80.784"><defs><style>.d{fill:#1b325f;}.d,.e{stroke-width:0px;}.e{fill:#e32726;}</style></defs><g id="c"><path class="e" d="m0,80.44026h16.10442L53.61148,27.07469l.02297-22.94684L0,80.44026Z"/><path class="d" d="m53.77213,49.29367v1.22293l21.03215,29.92366h16.10771L53.75244,27.56976l.01969,21.72391Z"/><path class="d" d="m144.08911,4.75396h-6.1614l-15.40353,35.25599h7.15808l3.50656-8.22731h15.49417l3.46127,8.22731h7.34838l-15.40353-35.25599Zm-8.3179,20.79478l5.14658-11.99662,5.18281,11.99662h-10.32939Z"/><polygon class="d" points="191.1059 20.72238 180.98804 4.99942 173.89108 4.99942 173.89108 40.01308 180.71197 40.01308 180.71197 16.73523 190.66303 31.63882 191.3541 31.63882 201.4025 16.63259 201.4025 40.01308 208.32117 40.01308 208.32117 4.99942 201.2242 4.99942 191.1059 20.72238"/><polygon class="d" points="232.80374 25.50236 249.89557 25.50236 249.89557 19.21813 232.80374 19.21813 232.80374 11.28454 252.08603 11.28454 252.08603 4.99942 225.88507 4.99942 225.88507 40.01308 252.33025 40.01308 252.33025 33.72885 232.80374 33.72885 232.80374 25.50236"/><path class="d" d="m289.2266,26.8988c5.02879-1.67624,7.79235-5.40933,7.79235-10.57406v-.09966c0-3.03543-1.02383-5.69027-2.96288-7.68368-2.36488-2.31959-5.88052-3.54279-10.15729-3.54279h-15.65721v35.01133h6.91347v-11.87888h6.79568l8.37226,11.87888h8.25447l-9.35086-13.11115Zm-5.77179-5.00163h-8.29976v-10.51969h8.25447c4.24956,0,6.59631,1.84846,6.59631,5.19188v.09064c0,3.23475-2.50983,5.23717-6.55101,5.23717Z"/><rect class="d" x="313.51521" y="4.99942" width="6.91778" height="35.01365"/><path class="d" d="m364.29873,29.86027c-2.8156,2.6289-5.38168,4.25792-9.47059,4.25792-6.14796,0-10.78459-4.99234-10.78459-11.61193v-.09822c0-6.59127,4.63663-11.5615,10.78459-11.5615,3.31997,0,6.16566,1.268,9.22725,4.11191l.35129.32651,4.45435-5.12861-.32032-.30616c-2.81472-2.6873-6.63906-5.43477-13.66391-5.43477-10.28642,0-18.04305,7.77698-18.04305,18.09083v.09733c0,10.08998,7.81857,17.99438,17.79883,17.99438,5.76748,0,10.00415-1.84846,14.16474-6.1807l.31324-.32651-4.48178-4.53841-.33005.30793Z"/><path class="d" d="m402.52402,5.03484l-.11769-.28089h-6.16146l-15.40353,35.25599h7.14906l3.50656-8.22731h15.50319l3.46122,8.22731h7.34849l-15.28584-34.97511Zm-8.43564,20.51389l5.13757-11.99662,5.18281,11.99662h-10.32038Z"/><path class="d" d="m471.64966,29.76207v.09966c0,6.46043-4.95629,10.63749-12.63991,10.63749-5.4184,0-10.43817-1.92998-14.52465-5.57248l-.33525-.29897,4.1952-4.99256.35339.30804c2.27429,1.97527,4.44893,3.22568,6.75951,3.84181,1.18692.32623,2.41919.48025,3.70577.48025,1.12354,0,2.12033-.17216,2.93572-.48025,1.13261-.41677,1.93916-1.09633,2.33778-1.97527.19931-.4077.29908-.86981.29908-1.36815v-.09971c0-1.64002-.68864-2.75449-4.04124-3.85995-.89702-.29897-1.98439-.58893-3.29818-.89702-7.41175-1.78497-11.70661-4.10456-11.70661-10.62842v-.09059c0-2.50989.8426-4.70261,2.3286-6.41513,2.12929-2.46459,5.58155-3.94152,9.77664-3.94152,4.8386,0,8.97949,1.44071,12.65816,4.39457l.34432.27182-3.74216,5.27345-.3806-.28996c-3.08062-2.29238-6.01634-3.40691-8.97927-3.40691-3.04456,0-5.08326,1.43164-5.08326,3.57v.09966c0,.21751.00907.42589.03628.6252.1178.86987.51653,1.5585,1.54031,2.18371,1.13261.71579,3.05363,1.35007,6.19774,2.09307,8.00074,1.94806,11.26264,4.97443,11.26264,10.43817Z"/><polygon class="d" points="428.40303 0 429.96802 4.81654 435.03243 4.81654 430.93523 7.79332 432.50022 12.60986 428.40303 9.63308 424.30583 12.60986 425.87082 7.79332 421.77363 4.81654 426.83804 4.81654 428.40303 0"/><path class="d" d="m135.05536,77.24116c-.14495,0-.18117.0725-.22652.35339-.07245.32618-.30804.83359-.60706,1.16884-.70672.8155-1.65816.99673-3.23475.99673-2.37395,0-5.58149-2.09307-5.58149-6.30641,0-1.72159.33525-3.39784,1.63095-4.58481.77922-.70678,1.78503-1.09639,3.32533-1.09639,1.63101,0,3.00823.47118,3.59721,1.09639.44398.46211.6705,1.07825.68864,1.63095,0,.24466.03622.38961.18117.38961.15408,0,.1903-.14495.20844-.40775.03622-.35333.01808-1.33193.05436-1.91184.03622-.6252.09059-.83359.09059-.97854,0-.10878-.07245-.1903-.27182-.20844-.52555-.05436-1.09639-.21745-1.76689-.30804-.81545-.09971-1.46786-.17216-2.56419-.17216-2.64582,0-4.32207.70672-5.59969,1.87561-1.70345,1.55845-2.07493,3.65151-2.07493,4.85663,0,1.71252.46211,3.69686,2.20179,5.21909,1.61287,1.40443,3.6425,1.92998,6.07081,1.92998,1.13261,0,2.48268-.12687,3.18945-.40775.29897-.1178.37147-.20844.46206-.50741.17216-.60712.38967-2.14743.38967-2.35587,0-.14495-.03628-.27182-.16314-.27182Z"/><path class="d" d="m168.80721,80.22217c-.14495,0-.29897-.01808-.49834-.05436-.26275-.05436-.98761-.18117-1.98434-1.20506-1.04197-1.09639-2.26523-2.67298-3.84181-4.65732,1.78503-1.44972,2.33773-2.65484,2.33773-3.96868,0-1.18698-.70678-2.09307-1.20512-2.42831-.95138-.65241-2.13836-.76114-3.2619-.76114-.54369,0-1.89375.05436-2.49175.05436-.37153,0-1.486-.05436-2.42831-.05436-.2628,0-.38961.03628-.38961.16309,0,.1178.10873.15408.29897.15408.25373,0,.5527.01808.69771.05436.57991.12687.72486.40775.76108,1.01482.03628.56177.03628,1.06011.03628,3.75123v3.11695c0,1.63095,0,3.02631-.09064,3.76931-.07245.51648-.16309.90609-.51642.97859-.16314.03622-.37153.07245-.63427.07245-.21745,0-.28089.05442-.28089.13594,0,.12687.1178.18123.35333.18123.70678,0,1.82125-.05436,2.1565-.05436.2628,0,1.57664.05436,2.60047.05436.23559,0,.35339-.05436.35339-.18123,0-.08152-.06343-.13594-.20838-.13594-.21745,0-.59805-.03622-.86987-.07245-.52549-.0725-.63427-.46211-.68864-.97859-.09059-.743-.09059-2.13836-.09059-3.78745v-.24466c0-.10873.05436-.14495.14495-.14495l1.54036.03622c.12687,0,.22652.01814.31716.12687.22652.26275,1.04197,1.46786,1.74875,2.43738.99668,1.3682,1.66717,2.20179,2.42831,2.60954.46211.24461.90609.33525,1.8937.33525h1.68537c.20838,0,.33525-.03622.33525-.18123,0-.08152-.0725-.13594-.20844-.13594Zm-7.12185-6.34263c-.31711.22652-.5527.29903-1.25948.29903-.44398,0-.96947-.05436-1.341-.17216-.12687-.05436-.16309-.12687-.16309-.32618v-5.38218c0-.13594.03622-.20838.16309-.24466.17216-.05436.49834-.07245.9333-.07245,1.05104,0,2.7092.72486,2.7092,3.24376,0,1.44978-.50741,2.26523-1.04203,2.65484Z"/><path class="d" d="m195.0476,77.84822c-.12687,0-.16309.0725-.19931.2628-.1178.72486-.33525,1.09633-.79736,1.31384-.46211.20838-1.20512.20838-1.65816.20838-1.81218,0-2.09307-.26275-2.12929-1.486-.01814-.51648,0-2.13836,0-2.74542v-1.39541c0-.10873.01808-.18123.10873-.18123.42584,0,2.17458.01814,2.50983.05436.66148.0725.90609.3353.99673.68864.05436.23559.05436.46211.07245.64334,0,.08157.03628.15402.15408.15402.16309,0,.16309-.19024.16309-.33525,0-.12687.05436-.83359.0725-1.18698.06338-.90609.13588-1.18698.13588-1.2957,0-.09966-.05436-.13594-.12687-.13594-.08152,0-.15402.08157-.28089.22652-.15402.18123-.42584.23559-.85173.2628-.4077.03622-2.43738.03622-2.827.03622-.10873,0-.12681-.06343-.12681-.1903v-4.4851c0-.1178.03622-.17216.12681-.17216.35339,0,2.21086.03622,2.50989.07245.88795.09971,1.06918.31716,1.18698.63427.09059.20844.10873.51648.10873.63427,0,.16309.03628.25373.15402.25373.12687,0,.16314-.10878.18123-.19937.03628-.20838.0725-.98761.09064-1.16884.05436-.8155.13588-1.02389.13588-1.15075,0-.09059-.01808-.15402-.09966-.15402-.09059,0-.19931.04529-.28089.06343-.14495.03622-.42589.07245-.77015.10873-.3353.01808-3.85995.01808-4.42172.01808-.25373,0-.65241-.01808-1.11453-.03622-.44398,0-.96045-.01814-1.44065-.01814-.2628,0-.38961.03628-.38961.16309,0,.1178.10873.15408.30804.15408.24466,0,.54369.01808.68864.05436.57991.12687.72486.40775.76114,1.01482.03622.56177.03622,1.06011.03622,3.75123v3.11695c0,1.63095,0,3.02631-.09059,3.76931-.0725.51648-.16314.90609-.51648.97859-.15408.03622-.37153.07245-.63427.07245-.20838,0-.28089.05442-.28089.13594,0,.12687.1178.18123.35339.18123.35333,0,.81545-.03622,1.2232-.03622.42584-.01814.8155-.01814,1.00575-.01814.53462,0,1.07825.01814,1.83939.05436.76108.01814,1.73968.05436,3.06259.05436.67957,0,.83359,0,.96045-.46211.09059-.35339.22652-1.55845.22652-1.9662,0-.18123,0-.31716-.13594-.31716Z"/><path class="d" d="m228.0293,69.16792c-1.92998-2.02062-4.88384-2.02062-7.0947-2.02062-1.06011,0-2.18365.05436-2.72734.05436-.49834,0-1.61281-.05436-2.55518-.05436-.26275,0-.38961.03628-.38961.16309,0,.1178.10873.15408.30809.15408.24461,0,.54363.01808.68864.05436.57986.12687.72486.40775.76108,1.01482.03622.56177.03622,1.06011.03622,3.75123v3.11695c0,1.63095,0,3.02631-.09059,3.76931-.0725.51648-.16309.90609-.51648.97859-.15402.03622-.37147.07245-.63427.07245-.20838,0-.28089.05442-.28089.13594,0,.12687.1178.18123.35339.18123.35339,0,.8155-.03622,1.22325-.03622.42584-.01814.81545-.01814,1.00575-.01814.44398,0,1.06011.05436,1.73968.10873.6705.05436,1.39536.09966,2.02963.09966,3.28004,0,5.11943-1.25041,5.93488-2.084.99673-1.01482,1.92998-2.7092,1.92998-4.94727,0-2.10214-.83359-3.57-1.72154-4.49417Zm-2.13841,9.4233c-1.06011.91516-2.26523,1.27762-4.06834,1.27762-1.40443,0-2.09307-.3806-2.32866-.71585-.13588-.19024-.17216-.89702-.19024-1.341-.01814-.33525-.03628-1.70345-.03628-3.57907v-2.22895c0-1.40448,0-2.94479.01814-3.54284,0-.19931.05436-.28089.20838-.35339.14501-.07245.79736-.12681,1.15075-.12681,1.38634,0,3.40691.21745,5.03786,1.7759.76114.72486,1.69438,2.17464,1.69438,4.42172,0,1.83032-.35339,3.43412-1.486,4.41265Z"/><path class="d" d="m255.15764,80.22217c-.2628,0-.65241-.03622-.90609-.07245-.52555-.0725-.65241-.38961-.70678-.86987-.06343-.76108-.06343-2.1565-.06343-3.87804v-3.11695c0-2.69112,0-3.18945.02721-3.75123.03622-.6252.18123-.92423.66143-1.01482.20838-.03628.35339-.05436.52555-.05436.18123,0,.28996-.03628.28996-.17216,0-.10873-.14501-.14501-.3806-.14501-.6705,0-1.71247.05436-2.15644.05436-.51648,0-1.63101-.05436-2.3015-.05436-.28089,0-.42584.03628-.42584.14501,0,.13588.10873.17216.28089.17216.21745,0,.44398.01808.64329.07245.38961.09064.56177.38967.59805.99673.03622.56177.03622,1.06011.03622,3.75123v3.11695c0,1.72154,0,3.11695-.09059,3.8599-.05436.51648-.15408.8155-.50741.88801-.16309.03622-.37153.07245-.64334.07245-.20838,0-.28089.05442-.28089.13594,0,.12687.12687.18123.35339.18123.70672,0,1.82125-.05436,2.22895-.05436.48025,0,1.59473.05436,2.76362.05436.19931,0,.33525-.05436.33525-.18123,0-.08152-.08157-.13594-.28089-.13594Z"/><path class="d" d="m286.29088,67.0295c-.0725,0-.21745.02721-.48025.08157-.26275.03622-.65236.09059-1.2232.09059h-7.01313c-.57991,0-1.25948-.03622-1.76689-.09059-.44398-.03622-.6252-.20838-.76114-.20838-.10873,0-.16309.10873-.21745.33525-.03622.14495-.37147,1.74875-.37147,2.0387,0,.19024.03622.28089.16309.28089.09966,0,.15402-.0725.1903-.20844.03622-.14495.12681-.3624.29897-.62515.27187-.38967.69771-.48025,1.72159-.50746l2.6367-.07245v7.25779c0,1.63095,0,3.02631-.08152,3.76931-.05436.51648-.16309.90609-.51648.97859-.16309.03622-.37147.07245-.64334.07245-.20838,0-.28089.05442-.28089.13594,0,.12687.12687.18123.35339.18123.70678,0,1.83032-.05436,2.23807-.05436.48927,0,1.60374.05436,2.77263.05436.19931,0,.34426-.05436.34426-.18123,0-.08152-.09059-.13594-.2899-.13594-.2628,0-.65241-.03622-.89708-.07245-.53456-.0725-.64329-.46211-.69765-.96045-.08157-.76114-.08157-2.1565-.08157-3.78745v-7.25779l2.229.05436c1.57659.02715,2.04777.52555,2.084.98761l.01814.19937c.01808.26275.05436.35339.19931.35339.10873,0,.13594-.10873.15402-.28996,0-.46211.05442-1.6763.05442-2.04777,0-.27182-.01814-.37153-.13594-.37153Z"/><path class="d" d="m341.92483,67.1473c-.69771,0-1.81218.05436-2.02056.05436-.01814,0-1.13261-.05436-2.0387-.05436-.24466,0-.37153.03628-.37153.16309,0,.1178.10873.15408.29897.15408.19931,0,.49839.01808.64329.05436.58002.12687.72492.40775.7612,1.01482.03628.56177.03628,1.06011.03628,3.75123v2.21086c0,1.83026-.05442,3.42499-1.03307,4.39451-.70667.70678-1.65799.96045-2.43733.96045-.60701,0-1.42262-.0725-2.21988-.73393-.86074-.70678-1.37727-1.78497-1.37727-4.34922v-2.48268c0-2.69112,0-3.18945.03628-3.75123.03628-.6252.1721-.92423.65236-1.01482.21745-.03628.31711-.05436.51653-.05436.1721,0,.28083-.03628.28083-.15408,0-.12681-.12687-.16309-.38967-.16309-.63422,0-1.75776.05436-2.17453.05436-.53467,0-1.64915-.05436-2.59151-.05436-.2628,0-.38956.03628-.38956.16309,0,.1178.10873.15408.29897.15408.25373,0,.5527.01808.69771.05436.57991.12687.72481.40775.76108,1.01482.03628.56177.03628,1.06011.03628,3.75123v2.58233c0,2.57332.6705,3.87809,1.57659,4.69354,1.28658,1.16889,2.99014,1.22325,3.93251,1.22325,1.15064,0,2.41919-.1903,3.67867-1.27762,1.486-1.26849,1.68531-3.36161,1.68531-5.32781v-1.8937c0-2.69112,0-3.18945.03628-3.75123.02721-.6252.1721-.92423.65236-1.01482.20838-.03628.31711-.05436.51653-.05436.20838,0,.317-.03628.317-.15408,0-.12681-.12676-.16309-.37142-.16309Z"/><path class="d" d="m375.99379,67.1473c-.86992,0-1.54042.05436-1.73973.05436-.37142,0-1.2232-.05436-2.13836-.05436-.27176,0-.462.01814-.462.16309,0,.10878.07234.15408.28083.15408.24455,0,.6705,0,.94226.10873.41688.18123.58002.51648.59805,1.59473l.18128,7.95544h-.0907c-.29897-.28996-2.69106-2.83607-3.89612-4.04113-2.58233-2.56425-5.28247-5.45468-5.49085-5.6812-.29908-.32618-.46211-.5527-.65247-.5527-.18128,0-.23559.24461-.23559.598l-.15408,10.48347c-.01814,1.54943-.09048,2.05684-.55259,2.20179-.24466.0725-.56188.09059-.79747.09059-.1721,0-.28083.03628-.28083.13594,0,.16309.15408.18123.38967.18123.91516,0,1.74869-.05436,1.91173-.05436.33536,0,1.04214.05436,2.19278.05436.25373,0,.40781-.03622.40781-.18123,0-.09966-.10884-.13594-.29908-.13594-.28094,0-.61608-.01808-.92423-.12681-.35328-.12687-.5798-.58898-.61608-1.96626l-.19024-7.43896h.04524c.32618.33525,2.29243,2.55518,4.22241,4.46702,1.83939,1.82125,4.10461,4.14084,5.21909,5.20095.19931.19937.4077.38961.60701.38961.15408,0,.22652-.15402.22652-.54363l.19024-11.18118c.01814-.98761.16326-1.35914.66154-1.50409.20838-.05436.35339-.05436.52549-.05436.21745,0,.32629-.04529.32629-.15408,0-.14495-.18128-.16309-.40781-.16309Z"/><path class="d" d="m402.05295,80.22217c-.2628,0-.65247-.03622-.90609-.07245-.52549-.0725-.65247-.38961-.70678-.86987-.07245-.76108-.07245-2.1565-.07245-3.87804v-3.11695c0-2.69112,0-3.18945.03628-3.75123.03617-.6252.18117-.92423.65236-1.01482.21745-.03628.36235-.05436.53456-.05436.18128,0,.28083-.03628.28083-.17216,0-.10873-.13583-.14501-.37142-.14501-.6705,0-1.71252.05436-2.1565.05436-.51642,0-1.63101-.05436-2.3015-.05436-.2899,0-.42584.03628-.42584.14501,0,.13588.10873.17216.28083.17216.21745,0,.44398.01808.64329.07245.38978.09064.56188.38967.59816.99673.03617.56177.03617,1.06011.03617,3.75123v3.11695c0,1.72154,0,3.11695-.09059,3.8599-.05442.51648-.15396.8155-.50746.88801-.16303.03622-.38049.07245-.64329.07245-.20838,0-.28094.05442-.28094.13594,0,.12687.12698.18123.3535.18123.70667,0,1.82125-.05436,2.22895-.05436.48025,0,1.59473.05436,2.76362.05436.19931,0,.33514-.05436.33514-.18123,0-.08152-.09059-.13594-.28083-.13594Z"/><path class="d" d="m429.21751,66.90269c-5.31874,0-7.3121,3.91432-7.3121,6.94063,0,3.13509,2.04777,6.94068,7.13081,6.94068,4.50335,0,7.33035-3.20759,7.33035-7.25779,0-4.05932-2.74548-6.62352-7.14906-6.62352Zm.56177,12.9933c-3.39784,0-5.43654-2.91758-5.43654-6.60538,0-4.40358,2.31964-5.5362,4.35835-5.5362,2.90851,0,5.19188,2.45547,5.19188,6.42415,0,5.11943-2.87235,5.71743-4.11368,5.71743Z"/><path class="d" d="m470.31774,67.1473c-.86981,0-1.54031.05436-1.73962.05436-.37153,0-1.22331-.05436-2.13847-.05436-.27176,0-.46211.01814-.46211.16309,0,.10878.07256.15408.28094.15408.24466,0,.6705,0,.94237.10873.41677.18123.5798.51648.59794,1.59473l.18128,7.95544h-.09059c-.29908-.28996-2.69106-2.83607-3.89623-4.04113-2.5914-2.56425-5.28258-5.45468-5.49096-5.6812-.29897-.32618-.46211-.5527-.65236-.5527-.18117,0-.23559.24461-.23559.598l-.15396,10.48347c-.01814,1.54943-.0907,2.05684-.55281,2.20179-.24466.0725-.57073.09059-.79725.09059-.18128,0-.28094.03628-.28094.13594,0,.16309.15396.18123.38956.18123.91516,0,1.7488-.05436,1.91195-.05436.33525,0,1.04192.05436,2.19267.05436.25373,0,.40781-.03622.40781-.18123,0-.09966-.10873-.13594-.29897-.13594-.28094,0-.62526-.01808-.92423-.12681-.3535-.12687-.58002-.58898-.61619-1.96626l-.19931-7.43896h.05431c.31722.33525,2.28336,2.55518,4.22241,4.46702,1.83939,1.82125,4.10461,4.14084,5.21909,5.20095.19931.19937.40781.38961.59805.38961.16303,0,.23559-.15402.23559-.54363l.19024-11.18118c.01814-.98761.16303-1.35914.66143-1.50409.20838-.05436.35339-.05436.5256-.05436.21745,0,.317-.04529.317-.15408,0-.14495-.1721-.16309-.39863-.16309Z"/></g></svg>