<?xml version="1.0" encoding="UTF-8"?><svg id="b" xmlns="http://www.w3.org/2000/svg" width="500" height="500" viewBox="0 0 500 500"><defs><style>.g{fill:#0866ff;}.g,.h{stroke-width:0px;}.h{fill:#fff;}</style></defs><g id="c"><g id="d"><path id="e" class="g" d="M500,250C500,111.92877,388.07123,0,250,0S0,111.92877,0,250c0,117.24463,80.71545,215.62219,189.60565,242.638v-166.24158h-51.55212v-76.39642h51.55212v-32.91876c0-85.09192,38.50873-124.53235,122.04791-124.53235,15.8382,0,43.16705,3.10553,54.34698,6.21106v69.25366c-5.90051-.62109-16.1488-.93164-28.88159-.93164-40.99316,0-56.83148,15.52771-56.83148,55.89984v27.01819h81.659l-14.02893,76.39642h-67.63007v171.77258c123.78577-14.95123,219.71252-120.35101,219.71252-248.16901Z"/><path id="f" class="h" d="M347.91751,326.39642l14.02893-76.39642h-81.659v-27.01819c0-40.37213,15.83832-55.89984,56.83148-55.89984,12.73279,0,22.98108.31055,28.88159.93164v-69.25366c-11.17993-3.10553-38.50879-6.21106-54.34698-6.21106-83.53918,0-122.04791,39.44043-122.04791,124.53235v32.91876h-51.55213v76.39642h51.55213v166.24158c19.34253,4.79889,39.56781,7.362,60.39435,7.362,10.25317,0,20.35779-.63165,30.28748-1.83099v-171.77258h67.63007Z"/></g></g></svg>