<?xml version="1.0" encoding="UTF-8"?><svg id="b" xmlns="http://www.w3.org/2000/svg" width="385.30994" height="356.13" viewBox="0 0 385.30994 356.13"><defs><style>.d{fill:#1b325f;}.d,.e{stroke-width:0px;}.e{fill:#e32726;}</style></defs><g id="c"><path class="e" d="m51.33997,232.75995h49.12l114.40002-162.76996.07007-69.98999L51.33997,232.75995Z"/><path class="d" d="m215.34998,137.75995v3.73004l64.15002,91.26996h49.13l-113.34009-161.25995.06006,66.25995Z"/><path class="d" d="m23.79999,272.21997h-6.79999L0,311.13h7.89996l3.87-9.08002h17.10004l3.82001,9.08002h8.10999l-17-38.91003Zm-9.17999,22.95001l5.67999-13.23999,5.71997,13.23999h-11.39996Z"/><polygon class="d" points="75.68975 289.84342 64.52325 272.49088 56.69073 272.49088 56.69073 311.13346 64.21856 311.13346 64.21856 285.44303 75.20098 301.89127 75.96368 301.89127 87.05352 285.32975 87.05352 311.13346 94.68926 311.13346 94.68926 272.49088 86.85674 272.49088 75.68975 289.84342"/><polygon class="d" points="121.70928 295.11881 140.57256 295.11881 140.57256 288.18326 121.70928 288.18326 121.70928 279.4274 142.99004 279.4274 142.99004 272.49088 114.07354 272.49088 114.07354 311.13346 143.25957 311.13346 143.25957 304.19791 121.70928 304.19791 121.70928 295.11881"/><path class="d" d="m183.97998,296.65997c5.54999-1.84998,8.59998-5.96997,8.59998-11.66998v-.10999c0-3.35004-1.12994-6.28003-3.26996-8.48004-2.60999-2.56-6.48999-3.90997-11.21002-3.90997h-17.27997v38.64001h7.63v-13.11005h7.5l9.23999,13.11005h9.10999l-10.32001-14.47003Zm-6.37-5.52002h-9.15997v-11.60999h9.10999c4.69,0,7.27997,2.04004,7.27997,5.72998v.10004c0,3.57001-2.76996,5.77997-7.22998,5.77997Z"/><rect class="d" x="210.78594" y="272.49088" width="7.63477" height="38.64258"/><path class="d" d="m266.83282,299.92838c-3.10742,2.90137-5.93945,4.69922-10.45215,4.69922-6.78516,0-11.90234-5.50977-11.90234-12.81543v-.1084c0-7.27441,5.11719-12.75977,11.90234-12.75977,3.66406,0,6.80469,1.39941,10.18359,4.53809l.3877.36035,4.91602-5.66016-.35352-.33789c-3.10645-2.96582-7.32715-5.99805-15.08008-5.99805-11.35254,0-19.91309,8.58301-19.91309,19.96582v.10742c0,11.13574,8.62891,19.85938,19.64355,19.85938,6.36523,0,11.04102-2.04004,15.63281-6.82129l.3457-.36035-4.94629-5.00879-.36426.33984Z"/><path class="d" d="m309.0199,272.52997l-.12988-.31h-6.80005l-17,38.91003h7.89001l3.87-9.08002h17.10999l3.81995,9.08002h8.11011l-16.87012-38.60004Zm-9.30994,22.64001l5.67004-13.23999,5.71997,13.23999h-11.39001Z"/><path class="d" d="m385.30994,299.82001v.10999c0,7.13-5.46997,11.73999-13.94995,11.73999-5.97998,0-11.52002-2.13-16.03003-6.15002l-.37-.32996,4.63-5.51001.39001.33997c2.51001,2.17999,4.91003,3.56,7.46008,4.23999,1.30994.36005,2.66992.53003,4.08984.53003,1.23999,0,2.34009-.19,3.23999-.53003,1.25-.45996,2.14014-1.20996,2.58008-2.17999.21997-.44995.33008-.95996.33008-1.50995v-.11005c0-1.81-.76001-3.03998-4.46008-4.26001-.98999-.32996-2.19006-.64996-3.64001-.98999-8.17993-1.96997-12.91992-4.52997-12.91992-11.72998v-.09998c0-2.77002.92993-5.19,2.56995-7.08002,2.34998-2.72003,6.16003-4.35004,10.78992-4.35004,5.34009,0,9.91016,1.59003,13.97009,4.85004l.38.29999-4.13,5.82001-.42004-.32001c-3.3999-2.52997-6.63989-3.76001-9.90991-3.76001-3.36011,0-5.61011,1.58002-5.61011,3.94v.10999c0,.24005.01001.47003.04004.69.13.96002.57007,1.72003,1.69995,2.41003,1.25.78998,3.37012,1.48999,6.84009,2.31,8.82996,2.14996,12.42993,5.48999,12.42993,11.52002Z"/><polygon class="d" points="337.58109 266.9733 339.30827 272.28904 344.89757 272.28904 340.37574 275.57435 342.10292 280.89009 337.58109 277.60478 333.05925 280.89009 334.78644 275.57435 330.2646 272.28904 335.8539 272.28904 337.58109 266.9733"/><path class="d" d="m13.82996,352.21997c-.15997,0-.19995.08002-.25.39001-.07996.35999-.33997.91998-.66998,1.28998-.77997.90002-1.83002,1.10004-3.57001,1.10004-2.62,0-6.15997-2.31-6.15997-6.96002,0-1.90002.37-3.75,1.79999-5.06.85999-.78003,1.97003-1.21002,3.66998-1.21002,1.80005,0,3.32001.52002,3.97003,1.21002.48999.51001.73999,1.19.76001,1.79999,0,.27002.03998.42999.19995.42999.17004,0,.21002-.15997.23004-.45001.03998-.38995.01996-1.46997.06-2.10999.03998-.69.09998-.91998.09998-1.07996,0-.12006-.07996-.21002-.29999-.23004-.58002-.06-1.21002-.23999-1.95001-.33997-.89996-.11005-1.62-.19-2.82996-.19-2.92004,0-4.77002.77997-6.18005,2.07001-1.88,1.71997-2.28998,4.02997-2.28998,5.35999,0,1.89001.51001,4.08002,2.42999,5.76001,1.78003,1.54999,4.02002,2.13,6.70001,2.13,1.25,0,2.73999-.14001,3.52002-.45001.32996-.13.40997-.23004.50995-.56.19-.67004.43005-2.37.43005-2.60004,0-.15997-.04004-.29999-.18005-.29999Z"/><path class="d" d="m51.07996,355.50995c-.15997,0-.32996-.01996-.54999-.06-.28998-.06-1.08997-.19995-2.19-1.32996-1.14996-1.21002-2.5-2.95001-4.23999-5.14001,1.97003-1.59998,2.58002-2.92999,2.58002-4.38,0-1.31-.78003-2.31-1.33002-2.67999-1.04999-.72003-2.35999-.84003-3.59998-.84003-.60004,0-2.09003.06-2.75.06-.41003,0-1.64001-.06-2.67999-.06-.29004,0-.42999.04004-.42999.17999,0,.13.12.17004.32996.17004.28003,0,.60999.01996.77002.06.64001.14001.79999.45001.83997,1.12.04004.62.04004,1.16998.04004,4.14001v3.44c0,1.79999,0,3.33997-.10004,4.15997-.07996.57001-.17999,1-.56995,1.08002-.18005.03998-.41003.07996-.70001.07996-.23999,0-.31.06006-.31.15002,0,.14001.13.20001.38995.20001.78003,0,2.01001-.06,2.38-.06.29004,0,1.74005.06,2.87.06.26001,0,.39001-.06.39001-.20001,0-.08997-.07001-.15002-.22998-.15002-.23999,0-.66003-.03998-.96002-.07996-.57996-.08002-.70001-.51001-.76001-1.08002-.09998-.82001-.09998-2.35999-.09998-4.17999v-.27002c0-.12.06-.15997.15997-.15997l1.70001.03998c.14001,0,.25.02002.35004.14001.25.28998,1.14996,1.62,1.92999,2.69,1.09998,1.51001,1.83997,2.42999,2.67999,2.88.51001.26996,1,.37,2.08997.37h1.86005c.22998,0,.37-.03998.37-.20001,0-.08997-.08002-.15002-.23004-.15002Zm-7.85999-7c-.34998.25-.60999.33002-1.39001.33002-.48999,0-1.06995-.06-1.47998-.19-.14001-.06-.17999-.14001-.17999-.35999v-5.94c0-.15002.03998-.22998.17999-.27002.19-.06.54999-.07996,1.03003-.07996,1.15997,0,2.98999.79999,2.98999,3.57996,0,1.60004-.56,2.5-1.15002,2.92999Z"/><path class="d" d="m80.03998,352.88995c-.14001,0-.17999.08002-.21997.29004-.13.79999-.37,1.20996-.88,1.45001-.51001.22998-1.33002.22998-1.83002.22998-2,0-2.31-.28998-2.34998-1.64001-.02002-.57001,0-2.35999,0-3.02997v-1.54004c0-.12.01996-.20001.12-.20001.46997,0,2.39996.02002,2.76996.06.73004.08002,1,.37006,1.10004.76001.06.26001.06.51001.07996.71002,0,.09003.04004.16998.17004.16998.17999,0,.17999-.20996.17999-.37,0-.14001.06-.91998.08002-1.31.06995-1,.14996-1.31.14996-1.42999,0-.10999-.06-.15002-.14001-.15002-.08997,0-.16998.09003-.31.25-.16998.20001-.46997.26001-.94.29004-.44995.03998-2.69.03998-3.12.03998-.12,0-.13995-.07001-.13995-.21002v-4.94995c0-.13.03998-.19.13995-.19.39001,0,2.44.03998,2.77002.07996.97998.11005,1.17999.35004,1.31.70001.09998.23004.12.57001.12.70001,0,.17999.04004.28003.16998.28003.14001,0,.18005-.12006.20001-.22003.04004-.22998.08002-1.08997.10004-1.28998.06-.90002.14996-1.13.14996-1.27002,0-.09998-.01996-.16998-.10999-.16998-.09998,0-.21997.04999-.31.07001-.15997.03998-.47003.07996-.84998.12-.37006.01996-4.26001.01996-4.88.01996-.28003,0-.72003-.01996-1.23004-.03998-.48999,0-1.06-.02002-1.58997-.02002-.29004,0-.42999.04004-.42999.17999,0,.13.12.17004.33997.17004.27002,0,.60004.01996.76001.06.64001.14001.79999.45001.84003,1.12.03998.62.03998,1.16998.03998,4.14001v3.44c0,1.79999,0,3.33997-.09998,4.15997-.08002.57001-.18005,1-.57001,1.08002-.17004.03998-.41003.07996-.70001.07996-.22998,0-.31.06006-.31.15002,0,.14001.13.20001.39001.20001.38995,0,.89996-.03998,1.34998-.03998.46997-.02002.90002-.02002,1.10999-.02002.59003,0,1.19.02002,2.03003.06.83997.02002,1.91998.06,3.38.06.75,0,.91998,0,1.06-.51001.09998-.39001.25-1.71997.25-2.16998,0-.20001,0-.35004-.15002-.35004Z"/><path class="d" d="m116.44,343.31c-2.13-2.23004-5.39001-2.23004-7.83002-2.23004-1.16998,0-2.40997.06-3.01001.06-.54999,0-1.77997-.06-2.82001-.06-.28998,0-.42999.04004-.42999.17999,0,.13.12.17004.34003.17004.26996,0,.59998.01996.76001.06.63995.14001.79999.45001.83997,1.12.03998.62.03998,1.16998.03998,4.14001v3.44c0,1.79999,0,3.33997-.09998,4.15997-.08002.57001-.17999,1-.57001,1.08002-.16998.03998-.40997.07996-.70001.07996-.22998,0-.31.06006-.31.15002,0,.14001.13.20001.39001.20001.39001,0,.90002-.03998,1.35004-.03998.46997-.02002.89996-.02002,1.10999-.02002.48999,0,1.16998.06,1.91998.12.73999.06,1.53998.10999,2.23999.10999,3.62,0,5.65002-1.38,6.54999-2.29999,1.10004-1.12,2.13-2.98999,2.13-5.46002,0-2.32001-.91998-3.94-1.89996-4.95996Zm-2.36005,10.39996c-1.16998,1.01001-2.5,1.41003-4.48999,1.41003-1.54999,0-2.31-.42004-2.57001-.79004-.14996-.20996-.19-.98999-.20996-1.47998-.02002-.37-.04004-1.88-.04004-3.95001v-2.45996c0-1.55005,0-3.25.02002-3.91003,0-.21997.06-.31.22998-.39001.16003-.07996.88-.13995,1.27002-.13995,1.53003,0,3.76001.23999,5.56,1.95996.84003.79999,1.87,2.40002,1.87,4.88,0,2.02002-.39001,3.79004-1.64001,4.87Z"/><path class="d" d="m146.38,355.50995c-.29004,0-.72003-.03998-1-.07996-.58002-.08002-.72003-.42999-.78003-.96002-.07001-.83997-.07001-2.38-.07001-4.27997v-3.44c0-2.97003,0-3.52002.03003-4.14001.03998-.69.20001-1.02002.72998-1.12.22998-.04004.39001-.06.58002-.06.20001,0,.32001-.04004.32001-.19,0-.12-.16003-.16003-.42004-.16003-.73999,0-1.88995.06-2.37994.06-.57001,0-1.80005-.06-2.54004-.06-.31,0-.46997.04004-.46997.16003,0,.14996.12.19.31.19.23999,0,.48999.01996.70996.07996.42999.10004.62.43005.66003,1.10004.03998.62.03998,1.16998.03998,4.14001v3.44c0,1.89996,0,3.44-.09998,4.25995-.06.57001-.17004.90002-.56.98004-.17999.03998-.41003.07996-.71002.07996-.22998,0-.31.06006-.31.15002,0,.14001.14001.20001.39001.20001.77997,0,2.01001-.06,2.45996-.06.53003,0,1.76001.06,3.05005.06.21997,0,.37-.06.37-.20001,0-.08997-.09003-.15002-.31-.15002Z"/><path class="d" d="m180.73999,340.94995c-.08002,0-.23999.03003-.53003.09003-.28998.03998-.71997.09998-1.34998.09998h-7.73999c-.64001,0-1.39001-.03998-1.95001-.09998-.48999-.03998-.69-.22998-.84003-.22998-.12,0-.17999.12-.23999.37-.03998.15997-.40997,1.92999-.40997,2.25,0,.20996.03998.31.17999.31.10999,0,.16998-.08002.21002-.23004.03998-.15997.13995-.39996.32996-.68994.30005-.43005.77002-.53003,1.90002-.56006l2.90997-.07996v8.01001c0,1.79999,0,3.33997-.08997,4.15997-.06.57001-.17999,1-.57001,1.08002-.17999.03998-.40997.07996-.71002.07996-.22998,0-.31.06006-.31.15002,0,.14001.14001.20001.39001.20001.78003,0,2.02002-.06,2.47003-.06.53998,0,1.76996.06,3.06.06.21997,0,.37994-.06.37994-.20001,0-.08997-.09998-.15002-.31995-.15002-.29004,0-.72003-.03998-.99005-.07996-.58997-.08002-.70996-.51001-.76996-1.06-.09003-.84003-.09003-2.38-.09003-4.17999v-8.01001l2.46002.06c1.73999.02997,2.26001.58002,2.29999,1.08997l.02002.22003c.01996.28998.06.39001.21997.39001.12,0,.15002-.12.16998-.32001,0-.51001.06006-1.85004.06006-2.26001,0-.29999-.02002-.41003-.15002-.41003Z"/><path class="d" d="m242.14001,341.07996c-.77002,0-2,.06-2.22998.06-.02002,0-1.25-.06-2.25-.06-.27002,0-.41003.04004-.41003.17999,0,.13.12.17004.32996.17004.21997,0,.55005.01996.70996.06.64014.14001.80005.45001.84009,1.12.04004.62.04004,1.16998.04004,4.14001v2.44c0,2.01996-.06006,3.77997-1.14014,4.84998-.77991.78003-1.82983,1.06-2.68994,1.06-.66992,0-1.57007-.08002-2.44995-.81-.94995-.78003-1.52002-1.96997-1.52002-4.79999v-2.73999c0-2.97003,0-3.52002.04004-4.14001.04004-.69.18994-1.02002.71997-1.12.23999-.04004.34998-.06.57007-.06.18994,0,.30994-.04004.30994-.17004,0-.13995-.14001-.17999-.43005-.17999-.69995,0-1.93994.06-2.3999.06-.59009,0-1.82007-.06-2.86011-.06-.29004,0-.42993.04004-.42993.17999,0,.13.12.17004.32996.17004.28003,0,.60999.01996.77002.06.64001.14001.79993.45001.83997,1.12.04004.62.04004,1.16998.04004,4.14001v2.84998c0,2.84003.73999,4.28003,1.73999,5.17999,1.41992,1.29004,3.30005,1.35004,4.34009,1.35004,1.2699,0,2.66992-.21002,4.05994-1.41003,1.64001-1.39996,1.85999-3.71002,1.85999-5.88v-2.08997c0-2.97003,0-3.52002.04004-4.14001.03003-.69.18994-1.02002.71997-1.12.22998-.04004.34998-.06.57007-.06.22998,0,.34985-.04004.34985-.17004,0-.13995-.13989-.17999-.40991-.17999Z"/><path class="d" d="m279.73999,341.07996c-.96008,0-1.70007.06-1.92004.06-.40991,0-1.34998-.06-2.35999-.06-.29993,0-.50989.02002-.50989.17999,0,.12006.07983.17004.30994.17004.2699,0,.73999,0,1.03992.12.46008.20001.64014.57001.66003,1.76001l.20007,8.77997h-.1001c-.32996-.32001-2.96997-3.13-4.29993-4.45996-2.84998-2.83002-5.82996-6.02002-6.05994-6.27002-.33008-.35999-.51001-.60999-.72009-.60999-.20007,0-.26001.26996-.26001.65997l-.17004,11.57001c-.02002,1.71002-.09985,2.27002-.60986,2.42999-.27002.08002-.62012.09998-.88013.09998-.18994,0-.30994.04004-.30994.15002,0,.17999.17004.20001.43005.20001,1.01001,0,1.92993-.06,2.10986-.06.37012,0,1.15015.06,2.42004.06.28003,0,.45007-.03998.45007-.20001,0-.10999-.12012-.15002-.33008-.15002-.31006,0-.67993-.01996-1.02002-.13995-.38989-.14001-.63989-.65002-.67993-2.17004l-.20996-8.20996h.04993c.35999.37,2.53003,2.82001,4.66003,4.92999,2.03003,2.01001,4.53003,4.57001,5.76001,5.73999.21997.22003.44995.42999.66992.42999.17004,0,.25-.16998.25-.59998l.20996-12.34003c.02002-1.08997.18018-1.5.7301-1.65997.22998-.06.39001-.06.57996-.06.23999,0,.36011-.04999.36011-.17004,0-.15997-.20007-.17999-.45007-.17999Z"/><path class="d" d="m308.5,355.50995c-.29004,0-.72009-.03998-1-.07996-.57996-.08002-.72009-.42999-.78003-.96002-.07996-.83997-.07996-2.38-.07996-4.27997v-3.44c0-2.97003,0-3.52002.04004-4.14001.03992-.69.19995-1.02002.71997-1.12.23999-.04004.3999-.06.58997-.06.20007,0,.30994-.04004.30994-.19,0-.12-.1499-.16003-.40991-.16003-.73999,0-1.89001.06-2.38.06-.56995,0-1.80005-.06-2.54004-.06-.31995,0-.46997.04004-.46997.16003,0,.14996.12.19.30994.19.23999,0,.48999.01996.70996.07996.43018.10004.62012.43005.66016,1.10004.03992.62.03992,1.16998.03992,4.14001v3.44c0,1.89996,0,3.44-.09998,4.25995-.06006.57001-.16992.90002-.56006.98004-.17993.03998-.41992.07996-.70996.07996-.22998,0-.31006.06006-.31006.15002,0,.14001.14014.20001.39014.20001.77991,0,2.01001-.06,2.45996-.06.53003,0,1.76001.06,3.05005.06.21997,0,.36987-.06.36987-.20001,0-.08997-.09998-.15002-.30994-.15002Z"/><path class="d" d="m338.47998,340.81c-5.87,0-8.06995,4.32001-8.06995,7.65997,0,3.46002,2.26001,7.66003,7.86987,7.66003,4.97009,0,8.09009-3.54004,8.09009-8.01001,0-4.48004-3.03003-7.31-7.89001-7.31Zm.62,14.33997c-3.75,0-6-3.21997-6-7.28998,0-4.85999,2.56006-6.10999,4.81006-6.10999,3.20996,0,5.72998,2.70996,5.72998,7.08997,0,5.65002-3.17004,6.31-4.54004,6.31Z"/><path class="d" d="m383.83997,341.07996c-.95996,0-1.69995.06-1.91992.06-.41003,0-1.3501-.06-2.36011-.06-.29993,0-.51001.02002-.51001.17999,0,.12006.08008.17004.31006.17004.27002,0,.73999,0,1.04004.12.45996.20001.63989.57001.65991,1.76001l.20007,8.77997h-.09998c-.33008-.32001-2.96997-3.13-4.30005-4.45996-2.85999-2.83002-5.83008-6.02002-6.06006-6.27002-.32996-.35999-.51001-.60999-.71997-.60999-.19995,0-.26001.26996-.26001.65997l-.16992,11.57001c-.02002,1.71002-.1001,2.27002-.61011,2.42999-.27002.08002-.62988.09998-.87988.09998-.20007,0-.31006.04004-.31006.15002,0,.17999.16992.20001.42993.20001,1.01001,0,1.93005-.06,2.11011-.06.37,0,1.1499.06,2.41992.06.28003,0,.45007-.03998.45007-.20001,0-.10999-.12-.15002-.32996-.15002-.31006,0-.69006-.01996-1.02002-.13995-.39014-.14001-.64014-.65002-.68005-2.17004l-.21997-8.20996h.05994c.3501.37,2.52002,2.82001,4.66003,4.92999,2.03003,2.01001,4.53003,4.57001,5.76001,5.73999.21997.22003.45007.42999.66003.42999.17993,0,.26001-.16998.26001-.59998l.20996-12.34003c.02002-1.08997.17993-1.5.72998-1.65997.22998-.06.39001-.06.58008-.06.23999,0,.34985-.04999.34985-.17004,0-.15997-.18994-.17999-.43994-.17999Z"/></g></svg>