<svg xmlns="http://www.w3.org/2000/svg" xmlns:xlink="http://www.w3.org/1999/xlink" width="461" zoomAndPan="magnify" viewBox="0 0 345.75 345.74999" height="461" preserveAspectRatio="xMidYMid meet" version="1.0"><defs><filter x="0%" y="0%" width="100%" height="100%" id="32c216971c"><feColorMatrix values="0 0 0 0 1 0 0 0 0 1 0 0 0 0 1 0 0 0 1 0" color-interpolation-filters="sRGB"/></filter><clipPath id="7f68b5cc05"><path d="M 0 9 L 345.5 9 L 345.5 341 L 0 341 Z M 0 9 " clip-rule="nonzero"/></clipPath><mask id="438f4addf5"><g filter="url(#32c216971c)"><rect x="-34.575" width="414.9" fill="#000000" y="-34.574999" height="414.899987" fill-opacity="0.1"/></g></mask><clipPath id="cc29ea853a"><path d="M 326 134 L 345.5 134 L 345.5 152 L 326 152 Z M 326 134 " clip-rule="nonzero"/></clipPath><clipPath id="396bf8bc62"><path d="M 326 165 L 345.5 165 L 345.5 183 L 326 183 Z M 326 165 " clip-rule="nonzero"/></clipPath><clipPath id="55e515d1c0"><path d="M 287 0.113281 L 296 0.113281 L 296 9 L 287 9 Z M 287 0.113281 " clip-rule="nonzero"/></clipPath><clipPath id="dae92378b9"><path d="M 20 0.113281 L 29 0.113281 L 29 8 L 20 8 Z M 20 0.113281 " clip-rule="nonzero"/></clipPath><clipPath id="56f447e5bc"><path d="M 50 0.113281 L 59 0.113281 L 59 8 L 50 8 Z M 50 0.113281 " clip-rule="nonzero"/></clipPath><clipPath id="1766ee7cb0"><path d="M 79 0.113281 L 89 0.113281 L 89 8 L 79 8 Z M 79 0.113281 " clip-rule="nonzero"/></clipPath><clipPath id="9965e42950"><path d="M 109 0.113281 L 118 0.113281 L 118 8 L 109 8 Z M 109 0.113281 " clip-rule="nonzero"/></clipPath><clipPath id="f38960a643"><path d="M 139 0.113281 L 148 0.113281 L 148 8 L 139 8 Z M 139 0.113281 " clip-rule="nonzero"/></clipPath><clipPath id="19c0357b8a"><path d="M 168 0.113281 L 177 0.113281 L 177 9 L 168 9 Z M 168 0.113281 " clip-rule="nonzero"/></clipPath><clipPath id="b3fd93b94a"><path d="M 198 0.113281 L 207 0.113281 L 207 9 L 198 9 Z M 198 0.113281 " clip-rule="nonzero"/></clipPath><clipPath id="a783623627"><path d="M 228 0.113281 L 237 0.113281 L 237 9 L 228 9 Z M 228 0.113281 " clip-rule="nonzero"/></clipPath><clipPath id="ac9ff6d1fd"><path d="M 257 0.113281 L 266 0.113281 L 266 9 L 257 9 Z M 257 0.113281 " clip-rule="nonzero"/></clipPath><clipPath id="b8f3b5bc86"><path d="M 317 0.113281 L 326 0.113281 L 326 9 L 317 9 Z M 317 0.113281 " clip-rule="nonzero"/></clipPath><clipPath id="26a60d0cf6"><path d="M 6 324 L 13 324 L 13 330.789062 L 6 330.789062 Z M 6 324 " clip-rule="nonzero"/></clipPath><clipPath id="48243e068f"><path d="M 35 324 L 43 324 L 43 330.789062 L 35 330.789062 Z M 35 324 " clip-rule="nonzero"/></clipPath><clipPath id="93a84636b3"><path d="M 65 324 L 73 324 L 73 330.789062 L 65 330.789062 Z M 65 324 " clip-rule="nonzero"/></clipPath><clipPath id="eb7bf37ee0"><path d="M 95 324 L 102 324 L 102 330.789062 L 95 330.789062 Z M 95 324 " clip-rule="nonzero"/></clipPath><clipPath id="2ad208d751"><path d="M 124 324 L 132 324 L 132 330.789062 L 124 330.789062 Z M 124 324 " clip-rule="nonzero"/></clipPath><clipPath id="e1160c9b8e"><path d="M 154 324 L 162 324 L 162 330.789062 L 154 330.789062 Z M 154 324 " clip-rule="nonzero"/></clipPath><clipPath id="ee24434090"><path d="M 184 325 L 191 325 L 191 330.789062 L 184 330.789062 Z M 184 325 " clip-rule="nonzero"/></clipPath><clipPath id="0caa9f4e20"><path d="M 213 325 L 221 325 L 221 330.789062 L 213 330.789062 Z M 213 325 " clip-rule="nonzero"/></clipPath><clipPath id="3dd204c256"><path d="M 243 325 L 251 325 L 251 330.789062 L 243 330.789062 Z M 243 325 " clip-rule="nonzero"/></clipPath><clipPath id="1a11b025ac"><path d="M 273 325 L 280 325 L 280 330.789062 L 273 330.789062 Z M 273 325 " clip-rule="nonzero"/></clipPath><clipPath id="deb705e2f4"><path d="M 302 325 L 310 325 L 310 330.789062 L 302 330.789062 Z M 302 325 " clip-rule="nonzero"/></clipPath><clipPath id="ae7e7af4e0"><path d="M 332 325 L 340 325 L 340 330.789062 L 332 330.789062 Z M 332 325 " clip-rule="nonzero"/></clipPath><clipPath id="f92e470518"><rect x="0" width="346" y="0" height="332"/></clipPath></defs><g clip-path="url(#7f68b5cc05)"><g mask="url(#438f4addf5)"><g transform="matrix(1, 0, 0, 1, 0, 9)"><g clip-path="url(#f92e470518)"><path fill="#b0c7e8" d="M 202.21875 166.992188 L 192.492188 166.992188 L 202.21875 150.117188 L 207.085938 158.554688 L 211.949219 166.992188 L 202.21875 166.992188 " fill-opacity="1" fill-rule="nonzero"/><path fill="#b0c7e8" d="M 24.558594 166.6875 L 14.832031 166.6875 L 19.695312 158.246094 L 24.558594 149.808594 L 29.421875 158.246094 L 34.285156 166.6875 L 24.558594 166.6875 " fill-opacity="1" fill-rule="nonzero"/><path fill="#b0c7e8" d="M 83.878906 166.6875 L 74.148438 166.6875 L 79.015625 158.246094 L 83.878906 149.808594 L 88.742188 158.246094 L 93.605469 166.6875 L 83.878906 166.6875 " fill-opacity="1" fill-rule="nonzero"/><path fill="#b0c7e8" d="M 113.539062 166.6875 L 103.808594 166.6875 L 108.671875 158.246094 L 113.539062 149.808594 L 118.402344 158.246094 L 123.265625 166.6875 L 113.539062 166.6875 " fill-opacity="1" fill-rule="nonzero"/><path fill="#b0c7e8" d="M 172.5625 166.992188 L 162.832031 166.992188 L 167.695312 158.554688 L 172.5625 150.117188 L 182.289062 166.992188 L 172.5625 166.992188 " fill-opacity="1" fill-rule="nonzero"/><path fill="#b0c7e8" d="M 54.21875 166.6875 L 44.488281 166.6875 L 49.355469 158.246094 L 54.21875 149.808594 L 59.082031 158.246094 L 63.945312 166.6875 L 54.21875 166.6875 " fill-opacity="1" fill-rule="nonzero"/><path fill="#b0c7e8" d="M 320.859375 166.992188 L 311.132812 166.992188 L 320.859375 150.117188 L 330.585938 166.992188 L 320.859375 166.992188 " fill-opacity="1" fill-rule="nonzero"/><path fill="#b0c7e8" d="M 291.199219 166.992188 L 281.46875 166.992188 L 286.335938 158.554688 L 291.199219 150.117188 L 296.0625 158.554688 L 300.929688 166.992188 L 291.199219 166.992188 " fill-opacity="1" fill-rule="nonzero"/><path fill="#b0c7e8" d="M 261.539062 166.992188 L 251.8125 166.992188 L 261.539062 150.117188 L 271.265625 166.992188 L 261.539062 166.992188 " fill-opacity="1" fill-rule="nonzero"/><path fill="#b0c7e8" d="M 143.199219 166.6875 L 133.46875 166.6875 L 138.332031 158.246094 L 143.199219 149.808594 L 148.0625 158.246094 L 152.925781 166.6875 L 143.199219 166.6875 " fill-opacity="1" fill-rule="nonzero"/><path fill="#b0c7e8" d="M 231.878906 166.992188 L 222.152344 166.992188 L 231.878906 150.117188 L 236.746094 158.554688 L 241.609375 166.992188 L 231.878906 166.992188 " fill-opacity="1" fill-rule="nonzero"/><path fill="#b0c7e8" d="M 306.328125 151.398438 L 296.808594 151.398438 L 301.570312 143.144531 L 306.328125 134.894531 L 311.082031 143.144531 L 315.839844 151.398438 L 306.328125 151.398438 " fill-opacity="1" fill-rule="nonzero"/><path fill="#b0c7e8" d="M 9.730469 151.09375 L 0.214844 151.09375 L 9.730469 134.585938 L 14.488281 142.839844 L 19.242188 151.09375 L 9.730469 151.09375 " fill-opacity="1" fill-rule="nonzero"/><path fill="#b0c7e8" d="M 39.390625 151.089844 L 29.875 151.089844 L 34.632812 142.839844 L 39.390625 134.585938 L 48.90625 151.089844 L 39.390625 151.089844 " fill-opacity="1" fill-rule="nonzero"/><path fill="#b0c7e8" d="M 69.046875 151.089844 L 59.535156 151.089844 L 69.046875 134.585938 L 78.5625 151.089844 L 69.046875 151.089844 " fill-opacity="1" fill-rule="nonzero"/><path fill="#b0c7e8" d="M 98.707031 151.09375 L 89.191406 151.09375 L 98.707031 134.585938 L 108.222656 151.09375 L 98.707031 151.09375 " fill-opacity="1" fill-rule="nonzero"/><path fill="#b0c7e8" d="M 128.367188 151.09375 L 118.851562 151.09375 L 128.367188 134.585938 L 137.882812 151.09375 L 128.367188 151.09375 " fill-opacity="1" fill-rule="nonzero"/><path fill="#b0c7e8" d="M 158.027344 151.089844 L 148.511719 151.089844 L 158.027344 134.585938 L 167.542969 151.089844 L 158.027344 151.089844 " fill-opacity="1" fill-rule="nonzero"/><path fill="#b0c7e8" d="M 187.6875 151.398438 L 178.171875 151.398438 L 182.929688 143.148438 L 187.6875 134.894531 L 192.445312 143.148438 L 197.203125 151.398438 L 187.6875 151.398438 " fill-opacity="1" fill-rule="nonzero"/><path fill="#b0c7e8" d="M 276.664062 151.398438 L 267.152344 151.398438 L 271.910156 143.144531 L 276.664062 134.894531 L 281.421875 143.144531 L 286.179688 151.398438 L 276.664062 151.398438 " fill-opacity="1" fill-rule="nonzero"/><path fill="#b0c7e8" d="M 247.007812 151.398438 L 237.492188 151.398438 L 242.25 143.148438 L 247.007812 134.894531 L 251.765625 143.148438 L 256.523438 151.398438 L 247.007812 151.398438 " fill-opacity="1" fill-rule="nonzero"/><path fill="#b0c7e8" d="M 217.347656 151.398438 L 207.832031 151.398438 L 212.589844 143.144531 L 217.347656 134.894531 L 222.105469 143.144531 L 226.863281 151.398438 L 217.347656 151.398438 " fill-opacity="1" fill-rule="nonzero"/><g clip-path="url(#cc29ea853a)"><path fill="#b0c7e8" d="M 335.984375 151.398438 L 326.46875 151.398438 L 331.226562 143.148438 L 335.984375 134.894531 L 340.742188 143.148438 L 345.5 151.398438 L 335.984375 151.398438 " fill-opacity="1" fill-rule="nonzero"/></g><path fill="#b0c7e8" d="M 68.75 181.839844 L 59.320312 181.839844 L 68.75 165.472656 L 73.46875 173.65625 L 78.183594 181.839844 L 68.75 181.839844 " fill-opacity="1" fill-rule="nonzero"/><path fill="#b0c7e8" d="M 98.414062 181.839844 L 88.976562 181.839844 L 98.414062 165.472656 L 107.84375 181.839844 L 98.414062 181.839844 " fill-opacity="1" fill-rule="nonzero"/><path fill="#b0c7e8" d="M 128.070312 181.839844 L 118.640625 181.839844 L 128.070312 165.472656 L 132.789062 173.65625 L 137.503906 181.839844 L 128.070312 181.839844 " fill-opacity="1" fill-rule="nonzero"/><path fill="#b0c7e8" d="M 9.433594 181.839844 L 0 181.839844 L 4.71875 173.65625 L 9.433594 165.472656 L 18.863281 181.839844 L 9.433594 181.839844 " fill-opacity="1" fill-rule="nonzero"/><path fill="#b0c7e8" d="M 39.09375 181.839844 L 29.660156 181.839844 L 34.375 173.65625 L 39.09375 165.472656 L 48.523438 181.839844 L 39.09375 181.839844 " fill-opacity="1" fill-rule="nonzero"/><path fill="#b0c7e8" d="M 157.730469 181.839844 L 148.296875 181.839844 L 153.015625 173.65625 L 157.730469 165.472656 L 162.445312 173.65625 L 167.164062 181.839844 L 157.730469 181.839844 " fill-opacity="1" fill-rule="nonzero"/><g clip-path="url(#396bf8bc62)"><path fill="#b0c7e8" d="M 335.6875 182.125 L 326.277344 182.125 L 330.980469 173.964844 L 335.6875 165.800781 L 340.394531 173.964844 L 345.097656 182.125 L 335.6875 182.125 " fill-opacity="1" fill-rule="nonzero"/></g><path fill="#b0c7e8" d="M 306.03125 182.125 L 296.617188 182.125 L 301.324219 173.964844 L 306.03125 165.800781 L 310.734375 173.964844 L 315.4375 182.125 L 306.03125 182.125 " fill-opacity="1" fill-rule="nonzero"/><path fill="#b0c7e8" d="M 276.367188 182.125 L 266.960938 182.125 L 271.664062 173.964844 L 276.367188 165.800781 L 281.074219 173.964844 L 285.78125 182.125 L 276.367188 182.125 " fill-opacity="1" fill-rule="nonzero"/><path fill="#b0c7e8" d="M 246.710938 182.128906 L 237.300781 182.128906 L 242.003906 173.964844 L 246.710938 165.800781 L 251.417969 173.964844 L 256.121094 182.128906 L 246.710938 182.128906 " fill-opacity="1" fill-rule="nonzero"/><path fill="#b0c7e8" d="M 217.050781 182.128906 L 207.636719 182.128906 L 217.050781 165.800781 L 221.753906 173.964844 L 226.460938 182.128906 L 217.050781 182.128906 " fill-opacity="1" fill-rule="nonzero"/><path fill="#b0c7e8" d="M 187.390625 182.125 L 177.980469 182.125 L 182.6875 173.964844 L 187.390625 165.800781 L 192.097656 173.964844 L 196.800781 182.125 L 187.390625 182.125 " fill-opacity="1" fill-rule="nonzero"/><path fill="#b0c7e8" d="M 143.199219 135.296875 L 134.128906 135.296875 L 143.199219 119.5625 L 147.730469 127.429688 L 152.265625 135.296875 L 143.199219 135.296875 " fill-opacity="1" fill-rule="nonzero"/><path fill="#b0c7e8" d="M 172.855469 135.605469 L 163.789062 135.605469 L 168.324219 127.738281 L 172.855469 119.871094 L 181.925781 135.605469 L 172.855469 135.605469 " fill-opacity="1" fill-rule="nonzero"/><path fill="#b0c7e8" d="M 113.539062 135.296875 L 104.46875 135.296875 L 113.539062 119.5625 L 122.609375 135.296875 L 113.539062 135.296875 " fill-opacity="1" fill-rule="nonzero"/><path fill="#b0c7e8" d="M 202.515625 135.605469 L 193.449219 135.605469 L 197.980469 127.738281 L 202.515625 119.871094 L 211.585938 135.605469 L 202.515625 135.605469 " fill-opacity="1" fill-rule="nonzero"/><path fill="#b0c7e8" d="M 321.15625 135.605469 L 312.085938 135.605469 L 321.15625 119.871094 L 330.222656 135.605469 L 321.15625 135.605469 " fill-opacity="1" fill-rule="nonzero"/><path fill="#b0c7e8" d="M 24.558594 135.296875 L 15.492188 135.296875 L 20.023438 127.429688 L 24.558594 119.5625 L 33.628906 135.296875 L 24.558594 135.296875 " fill-opacity="1" fill-rule="nonzero"/><path fill="#b0c7e8" d="M 54.21875 135.296875 L 45.148438 135.296875 L 54.21875 119.5625 L 63.289062 135.296875 L 54.21875 135.296875 " fill-opacity="1" fill-rule="nonzero"/><path fill="#b0c7e8" d="M 83.878906 135.296875 L 74.808594 135.296875 L 83.878906 119.5625 L 92.949219 135.296875 L 83.878906 135.296875 " fill-opacity="1" fill-rule="nonzero"/><path fill="#b0c7e8" d="M 232.175781 135.605469 L 223.105469 135.605469 L 232.175781 119.871094 L 241.246094 135.605469 L 232.175781 135.605469 " fill-opacity="1" fill-rule="nonzero"/><path fill="#b0c7e8" d="M 261.835938 135.605469 L 252.765625 135.605469 L 261.835938 119.871094 L 270.90625 135.605469 L 261.835938 135.605469 " fill-opacity="1" fill-rule="nonzero"/><path fill="#b0c7e8" d="M 291.496094 135.605469 L 282.425781 135.605469 L 291.496094 119.871094 L 300.566406 135.605469 L 291.496094 135.605469 " fill-opacity="1" fill-rule="nonzero"/><path fill="#b0c7e8" d="M 53.921875 196.789062 L 45.019531 196.789062 L 49.46875 189.0625 L 53.921875 181.339844 L 58.375 189.0625 L 62.824219 196.789062 L 53.921875 196.789062 " fill-opacity="1" fill-rule="nonzero"/><path fill="#b0c7e8" d="M 24.261719 196.789062 L 15.359375 196.789062 L 19.8125 189.0625 L 24.261719 181.339844 L 28.714844 189.0625 L 33.167969 196.789062 L 24.261719 196.789062 " fill-opacity="1" fill-rule="nonzero"/><path fill="#b0c7e8" d="M 142.902344 196.789062 L 133.996094 196.789062 L 138.449219 189.0625 L 142.902344 181.339844 L 147.351562 189.0625 L 151.804688 196.789062 L 142.902344 196.789062 " fill-opacity="1" fill-rule="nonzero"/><path fill="#b0c7e8" d="M 113.242188 196.789062 L 104.335938 196.789062 L 108.789062 189.0625 L 113.242188 181.339844 L 117.691406 189.0625 L 122.144531 196.789062 L 113.242188 196.789062 " fill-opacity="1" fill-rule="nonzero"/><path fill="#b0c7e8" d="M 83.582031 196.789062 L 74.679688 196.789062 L 79.128906 189.0625 L 83.582031 181.339844 L 88.035156 189.0625 L 92.484375 196.789062 L 83.582031 196.789062 " fill-opacity="1" fill-rule="nonzero"/><path fill="#b0c7e8" d="M 202.21875 197.089844 L 193.320312 197.089844 L 197.773438 189.371094 L 202.21875 181.65625 L 206.667969 189.371094 L 211.117188 197.089844 L 202.21875 197.089844 " fill-opacity="1" fill-rule="nonzero"/><path fill="#b0c7e8" d="M 172.5625 197.089844 L 163.664062 197.089844 L 168.113281 189.371094 L 172.5625 181.65625 L 177.007812 189.371094 L 181.460938 197.089844 L 172.5625 197.089844 " fill-opacity="1" fill-rule="nonzero"/><path fill="#b0c7e8" d="M 291.199219 197.089844 L 282.300781 197.089844 L 291.199219 181.65625 L 295.648438 189.371094 L 300.097656 197.089844 L 291.199219 197.089844 " fill-opacity="1" fill-rule="nonzero"/><path fill="#b0c7e8" d="M 231.878906 197.089844 L 222.984375 197.089844 L 227.429688 189.371094 L 231.878906 181.65625 L 240.777344 197.089844 L 231.878906 197.089844 " fill-opacity="1" fill-rule="nonzero"/><path fill="#b0c7e8" d="M 320.859375 197.089844 L 311.960938 197.089844 L 316.410156 189.371094 L 320.859375 181.65625 L 325.308594 189.371094 L 329.757812 197.089844 L 320.859375 197.089844 " fill-opacity="1" fill-rule="nonzero"/><path fill="#b0c7e8" d="M 261.539062 197.089844 L 252.640625 197.089844 L 257.089844 189.371094 L 261.539062 181.65625 L 265.988281 189.371094 L 270.4375 197.089844 L 261.539062 197.089844 " fill-opacity="1" fill-rule="nonzero"/><path fill="#b0c7e8" d="M 39.390625 119.460938 L 30.8125 119.460938 L 35.101562 112.019531 L 39.390625 104.582031 L 43.675781 112.019531 L 47.964844 119.460938 L 39.390625 119.460938 " fill-opacity="1" fill-rule="nonzero"/><path fill="#b0c7e8" d="M 69.046875 119.460938 L 60.472656 119.460938 L 64.757812 112.019531 L 69.046875 104.582031 L 73.335938 112.019531 L 77.625 119.460938 L 69.046875 119.460938 " fill-opacity="1" fill-rule="nonzero"/><path fill="#b0c7e8" d="M 128.367188 119.460938 L 119.792969 119.460938 L 124.078125 112.019531 L 128.367188 104.582031 L 132.65625 112.019531 L 136.945312 119.460938 L 128.367188 119.460938 " fill-opacity="1" fill-rule="nonzero"/><path fill="#b0c7e8" d="M 158.027344 119.460938 L 149.449219 119.460938 L 153.738281 112.019531 L 158.027344 104.582031 L 162.316406 112.019531 L 166.605469 119.460938 L 158.027344 119.460938 " fill-opacity="1" fill-rule="nonzero"/><path fill="#b0c7e8" d="M 217.347656 119.769531 L 208.769531 119.769531 L 213.058594 112.332031 L 217.347656 104.890625 L 221.636719 112.332031 L 225.921875 119.769531 L 217.347656 119.769531 " fill-opacity="1" fill-rule="nonzero"/><path fill="#b0c7e8" d="M 247.007812 119.769531 L 238.429688 119.769531 L 242.71875 112.332031 L 247.007812 104.890625 L 251.292969 112.332031 L 255.582031 119.769531 L 247.007812 119.769531 " fill-opacity="1" fill-rule="nonzero"/><path fill="#b0c7e8" d="M 276.664062 119.769531 L 268.089844 119.769531 L 272.378906 112.332031 L 276.664062 104.890625 L 280.953125 112.332031 L 285.242188 119.769531 L 276.664062 119.769531 " fill-opacity="1" fill-rule="nonzero"/><path fill="#b0c7e8" d="M 306.324219 119.769531 L 297.75 119.769531 L 302.039062 112.332031 L 306.324219 104.890625 L 310.613281 112.332031 L 314.902344 119.769531 L 306.324219 119.769531 " fill-opacity="1" fill-rule="nonzero"/><path fill="#b0c7e8" d="M 335.984375 119.769531 L 327.410156 119.769531 L 331.699219 112.332031 L 335.984375 104.890625 L 340.273438 112.332031 L 344.5625 119.769531 L 335.984375 119.769531 " fill-opacity="1" fill-rule="nonzero"/><path fill="#b0c7e8" d="M 98.707031 119.460938 L 90.132812 119.460938 L 94.421875 112.019531 L 98.707031 104.582031 L 102.996094 112.019531 L 107.285156 119.460938 L 98.707031 119.460938 " fill-opacity="1" fill-rule="nonzero"/><path fill="#b0c7e8" d="M 187.6875 119.769531 L 179.109375 119.769531 L 183.398438 112.332031 L 187.6875 104.890625 L 191.976562 112.332031 L 196.265625 119.769531 L 187.6875 119.769531 " fill-opacity="1" fill-rule="nonzero"/><path fill="#b0c7e8" d="M 9.730469 119.460938 L 1.152344 119.460938 L 5.441406 112.019531 L 9.730469 104.582031 L 14.019531 112.019531 L 18.304688 119.460938 L 9.730469 119.460938 " fill-opacity="1" fill-rule="nonzero"/><path fill="#b0c7e8" d="M 157.730469 211.726562 L 149.367188 211.726562 L 153.550781 204.472656 L 157.730469 197.21875 L 161.914062 204.472656 L 166.09375 211.726562 L 157.730469 211.726562 " fill-opacity="1" fill-rule="nonzero"/><path fill="#b0c7e8" d="M 128.070312 211.726562 L 119.707031 211.726562 L 123.890625 204.472656 L 128.070312 197.21875 L 132.253906 204.472656 L 136.433594 211.726562 L 128.070312 211.726562 " fill-opacity="1" fill-rule="nonzero"/><path fill="#b0c7e8" d="M 98.414062 211.726562 L 90.046875 211.726562 L 98.414062 197.21875 L 106.773438 211.726562 L 98.414062 211.726562 " fill-opacity="1" fill-rule="nonzero"/><path fill="#b0c7e8" d="M 68.75 211.726562 L 60.386719 211.726562 L 64.570312 204.472656 L 68.75 197.21875 L 77.117188 211.726562 L 68.75 211.726562 " fill-opacity="1" fill-rule="nonzero"/><path fill="#b0c7e8" d="M 39.09375 211.726562 L 30.730469 211.726562 L 34.910156 204.472656 L 39.09375 197.21875 L 43.273438 204.472656 L 47.457031 211.726562 L 39.09375 211.726562 " fill-opacity="1" fill-rule="nonzero"/><path fill="#b0c7e8" d="M 9.433594 211.726562 L 1.070312 211.726562 L 5.25 204.472656 L 9.433594 197.21875 L 13.613281 204.472656 L 17.796875 211.726562 L 9.433594 211.726562 " fill-opacity="1" fill-rule="nonzero"/><path fill="#b0c7e8" d="M 217.050781 212.035156 L 208.6875 212.035156 L 212.867188 204.78125 L 217.050781 197.527344 L 221.230469 204.78125 L 225.414062 212.035156 L 217.050781 212.035156 " fill-opacity="1" fill-rule="nonzero"/><path fill="#b0c7e8" d="M 246.710938 212.035156 L 238.347656 212.035156 L 242.527344 204.78125 L 246.710938 197.527344 L 250.890625 204.78125 L 255.074219 212.035156 L 246.710938 212.035156 " fill-opacity="1" fill-rule="nonzero"/><path fill="#b0c7e8" d="M 276.367188 212.035156 L 268.003906 212.035156 L 272.1875 204.78125 L 276.367188 197.527344 L 284.734375 212.035156 L 276.367188 212.035156 " fill-opacity="1" fill-rule="nonzero"/><path fill="#b0c7e8" d="M 306.03125 212.035156 L 297.664062 212.035156 L 306.03125 197.527344 L 310.210938 204.78125 L 314.394531 212.035156 L 306.03125 212.035156 " fill-opacity="1" fill-rule="nonzero"/><path fill="#b0c7e8" d="M 335.6875 212.035156 L 327.324219 212.035156 L 331.507812 204.78125 L 335.6875 197.527344 L 339.871094 204.78125 L 344.050781 212.035156 L 335.6875 212.035156 " fill-opacity="1" fill-rule="nonzero"/><path fill="#b0c7e8" d="M 187.390625 212.035156 L 179.027344 212.035156 L 183.207031 204.78125 L 187.390625 197.527344 L 191.574219 204.78125 L 195.753906 212.035156 L 187.390625 212.035156 " fill-opacity="1" fill-rule="nonzero"/><path fill="#b0c7e8" d="M 321.15625 103.894531 L 313.117188 103.894531 L 321.15625 89.949219 L 325.171875 96.921875 L 329.191406 103.894531 L 321.15625 103.894531 " fill-opacity="1" fill-rule="nonzero"/><path fill="#b0c7e8" d="M 291.496094 103.894531 L 283.460938 103.894531 L 287.476562 96.921875 L 291.496094 89.949219 L 295.515625 96.921875 L 299.53125 103.894531 L 291.496094 103.894531 " fill-opacity="1" fill-rule="nonzero"/><path fill="#b0c7e8" d="M 261.835938 103.894531 L 253.800781 103.894531 L 257.820312 96.921875 L 261.835938 89.949219 L 269.875 103.894531 L 261.835938 103.894531 " fill-opacity="1" fill-rule="nonzero"/><path fill="#b0c7e8" d="M 232.175781 103.894531 L 224.140625 103.894531 L 228.160156 96.921875 L 232.175781 89.949219 L 240.214844 103.894531 L 232.175781 103.894531 " fill-opacity="1" fill-rule="nonzero"/><path fill="#b0c7e8" d="M 202.515625 103.894531 L 194.480469 103.894531 L 198.5 96.921875 L 202.515625 89.949219 L 210.554688 103.894531 L 202.515625 103.894531 " fill-opacity="1" fill-rule="nonzero"/><path fill="#b0c7e8" d="M 172.855469 103.894531 L 164.820312 103.894531 L 168.839844 96.921875 L 172.855469 89.949219 L 180.894531 103.894531 L 172.855469 103.894531 " fill-opacity="1" fill-rule="nonzero"/><path fill="#b0c7e8" d="M 54.21875 103.570312 L 46.195312 103.570312 L 54.21875 89.65625 L 58.230469 96.613281 L 62.238281 103.570312 L 54.21875 103.570312 " fill-opacity="1" fill-rule="nonzero"/><path fill="#b0c7e8" d="M 113.539062 103.570312 L 105.515625 103.570312 L 113.539062 89.65625 L 117.546875 96.613281 L 121.558594 103.570312 L 113.539062 103.570312 " fill-opacity="1" fill-rule="nonzero"/><path fill="#b0c7e8" d="M 143.199219 103.570312 L 135.175781 103.570312 L 143.199219 89.65625 L 147.207031 96.613281 L 151.21875 103.570312 L 143.199219 103.570312 " fill-opacity="1" fill-rule="nonzero"/><path fill="#b0c7e8" d="M 83.878906 103.570312 L 75.859375 103.570312 L 79.867188 96.613281 L 83.878906 89.65625 L 87.890625 96.613281 L 91.898438 103.570312 L 83.878906 103.570312 " fill-opacity="1" fill-rule="nonzero"/><path fill="#b0c7e8" d="M 24.558594 103.570312 L 16.539062 103.570312 L 20.550781 96.613281 L 24.558594 89.65625 L 28.570312 96.613281 L 32.578125 103.570312 L 24.558594 103.570312 " fill-opacity="1" fill-rule="nonzero"/><path fill="#b0c7e8" d="M 24.261719 226.679688 L 16.425781 226.679688 L 24.261719 213.085938 L 32.097656 226.679688 L 24.261719 226.679688 " fill-opacity="1" fill-rule="nonzero"/><path fill="#b0c7e8" d="M 83.582031 226.679688 L 75.746094 226.679688 L 83.582031 213.085938 L 91.417969 226.679688 L 83.582031 226.679688 " fill-opacity="1" fill-rule="nonzero"/><path fill="#b0c7e8" d="M 113.242188 226.679688 L 105.40625 226.679688 L 113.242188 213.085938 L 121.078125 226.679688 L 113.242188 226.679688 " fill-opacity="1" fill-rule="nonzero"/><path fill="#b0c7e8" d="M 320.859375 226.988281 L 313.023438 226.988281 L 316.941406 220.191406 L 320.859375 213.390625 L 324.777344 220.191406 L 328.695312 226.988281 L 320.859375 226.988281 " fill-opacity="1" fill-rule="nonzero"/><path fill="#b0c7e8" d="M 142.902344 226.679688 L 135.066406 226.679688 L 142.902344 213.085938 L 150.738281 226.679688 L 142.902344 226.679688 " fill-opacity="1" fill-rule="nonzero"/><path fill="#b0c7e8" d="M 53.921875 226.679688 L 46.085938 226.679688 L 53.921875 213.085938 L 61.757812 226.679688 L 53.921875 226.679688 " fill-opacity="1" fill-rule="nonzero"/><path fill="#b0c7e8" d="M 172.5625 226.988281 L 164.722656 226.988281 L 168.640625 220.1875 L 172.5625 213.390625 L 176.480469 220.1875 L 180.398438 226.988281 L 172.5625 226.988281 " fill-opacity="1" fill-rule="nonzero"/><path fill="#b0c7e8" d="M 202.21875 226.988281 L 194.382812 226.988281 L 198.300781 220.1875 L 202.21875 213.390625 L 206.136719 220.1875 L 210.054688 226.988281 L 202.21875 226.988281 " fill-opacity="1" fill-rule="nonzero"/><path fill="#b0c7e8" d="M 261.539062 226.988281 L 253.703125 226.988281 L 257.621094 220.1875 L 261.539062 213.390625 L 265.457031 220.1875 L 269.375 226.988281 L 261.539062 226.988281 " fill-opacity="1" fill-rule="nonzero"/><path fill="#b0c7e8" d="M 291.199219 226.988281 L 283.363281 226.988281 L 287.28125 220.191406 L 291.199219 213.390625 L 295.117188 220.191406 L 299.035156 226.988281 L 291.199219 226.988281 " fill-opacity="1" fill-rule="nonzero"/><path fill="#b0c7e8" d="M 231.878906 226.988281 L 224.042969 226.988281 L 231.878906 213.390625 L 235.796875 220.191406 L 239.714844 226.988281 L 231.878906 226.988281 " fill-opacity="1" fill-rule="nonzero"/><path fill="#b0c7e8" d="M 335.984375 87.996094 L 328.511719 87.996094 L 332.246094 81.511719 L 335.984375 75.027344 L 343.460938 87.996094 L 335.984375 87.996094 " fill-opacity="1" fill-rule="nonzero"/><path fill="#b0c7e8" d="M 306.324219 87.996094 L 298.847656 87.996094 L 302.589844 81.511719 L 306.324219 75.027344 L 313.800781 87.996094 L 306.324219 87.996094 " fill-opacity="1" fill-rule="nonzero"/><path fill="#b0c7e8" d="M 276.664062 88 L 269.191406 88 L 272.925781 81.511719 L 276.664062 75.027344 L 280.40625 81.511719 L 284.144531 88 L 276.664062 88 " fill-opacity="1" fill-rule="nonzero"/><path fill="#b0c7e8" d="M 217.347656 87.996094 L 209.871094 87.996094 L 217.347656 75.027344 L 221.085938 81.511719 L 224.820312 87.996094 L 217.347656 87.996094 " fill-opacity="1" fill-rule="nonzero"/><path fill="#b0c7e8" d="M 69.046875 87.679688 L 61.582031 87.679688 L 69.046875 74.730469 L 76.515625 87.679688 L 69.046875 87.679688 " fill-opacity="1" fill-rule="nonzero"/><path fill="#b0c7e8" d="M 39.390625 87.679688 L 31.921875 87.679688 L 39.390625 74.730469 L 43.121094 81.203125 L 46.855469 87.679688 L 39.390625 87.679688 " fill-opacity="1" fill-rule="nonzero"/><path fill="#b0c7e8" d="M 9.730469 87.679688 L 2.261719 87.679688 L 9.730469 74.730469 L 17.195312 87.679688 L 9.730469 87.679688 " fill-opacity="1" fill-rule="nonzero"/><path fill="#b0c7e8" d="M 187.6875 88 L 180.210938 88 L 183.949219 81.511719 L 187.6875 75.027344 L 191.425781 81.511719 L 195.164062 88 L 187.6875 88 " fill-opacity="1" fill-rule="nonzero"/><path fill="#b0c7e8" d="M 158.027344 87.679688 L 150.5625 87.679688 L 154.296875 81.203125 L 158.027344 74.730469 L 165.492188 87.679688 L 158.027344 87.679688 " fill-opacity="1" fill-rule="nonzero"/><path fill="#b0c7e8" d="M 128.367188 87.679688 L 120.902344 87.679688 L 128.367188 74.730469 L 132.101562 81.203125 L 135.832031 87.679688 L 128.367188 87.679688 " fill-opacity="1" fill-rule="nonzero"/><path fill="#b0c7e8" d="M 247.007812 87.996094 L 239.53125 87.996094 L 247.007812 75.027344 L 250.742188 81.511719 L 254.484375 87.996094 L 247.007812 87.996094 " fill-opacity="1" fill-rule="nonzero"/><path fill="#b0c7e8" d="M 98.707031 87.679688 L 91.242188 87.679688 L 94.976562 81.203125 L 98.707031 74.730469 L 106.171875 87.679688 L 98.707031 87.679688 " fill-opacity="1" fill-rule="nonzero"/><path fill="#b0c7e8" d="M 335.6875 241.953125 L 328.363281 241.953125 L 332.027344 235.597656 L 335.6875 229.242188 L 343.015625 241.953125 L 335.6875 241.953125 " fill-opacity="1" fill-rule="nonzero"/><path fill="#b0c7e8" d="M 306.03125 241.953125 L 298.703125 241.953125 L 306.03125 229.242188 L 313.355469 241.953125 L 306.03125 241.953125 " fill-opacity="1" fill-rule="nonzero"/><path fill="#b0c7e8" d="M 276.367188 241.953125 L 269.042969 241.953125 L 272.707031 235.597656 L 276.367188 229.242188 L 280.035156 235.597656 L 283.695312 241.953125 L 276.367188 241.953125 " fill-opacity="1" fill-rule="nonzero"/><path fill="#b0c7e8" d="M 246.710938 241.953125 L 239.382812 241.953125 L 246.710938 229.242188 L 254.035156 241.953125 L 246.710938 241.953125 " fill-opacity="1" fill-rule="nonzero"/><path fill="#b0c7e8" d="M 187.390625 241.957031 L 180.0625 241.957031 L 187.390625 229.242188 L 194.71875 241.957031 L 187.390625 241.957031 " fill-opacity="1" fill-rule="nonzero"/><path fill="#b0c7e8" d="M 157.730469 241.644531 L 150.402344 241.644531 L 157.730469 228.933594 L 165.058594 241.644531 L 157.730469 241.644531 " fill-opacity="1" fill-rule="nonzero"/><path fill="#b0c7e8" d="M 98.414062 241.644531 L 91.085938 241.644531 L 94.746094 235.289062 L 98.414062 228.933594 L 102.074219 235.289062 L 105.738281 241.644531 L 98.414062 241.644531 " fill-opacity="1" fill-rule="nonzero"/><path fill="#b0c7e8" d="M 217.050781 241.953125 L 209.722656 241.953125 L 217.050781 229.242188 L 220.714844 235.597656 L 224.375 241.953125 L 217.050781 241.953125 " fill-opacity="1" fill-rule="nonzero"/><path fill="#b0c7e8" d="M 128.070312 241.644531 L 120.746094 241.644531 L 124.410156 235.289062 L 128.070312 228.933594 L 135.398438 241.644531 L 128.070312 241.644531 " fill-opacity="1" fill-rule="nonzero"/><path fill="#b0c7e8" d="M 9.433594 241.644531 L 2.105469 241.644531 L 9.433594 228.933594 L 16.761719 241.644531 L 9.433594 241.644531 " fill-opacity="1" fill-rule="nonzero"/><path fill="#b0c7e8" d="M 39.09375 241.644531 L 31.765625 241.644531 L 39.09375 228.933594 L 42.757812 235.289062 L 46.417969 241.644531 L 39.09375 241.644531 " fill-opacity="1" fill-rule="nonzero"/><path fill="#b0c7e8" d="M 68.75 241.644531 L 61.425781 241.644531 L 65.089844 235.289062 L 68.75 228.933594 L 76.078125 241.644531 L 68.75 241.644531 " fill-opacity="1" fill-rule="nonzero"/><path fill="#b0c7e8" d="M 143.199219 71.777344 L 136.304688 71.777344 L 143.199219 59.816406 L 150.089844 71.777344 L 143.199219 71.777344 " fill-opacity="1" fill-rule="nonzero"/><path fill="#b0c7e8" d="M 172.855469 72.082031 L 165.964844 72.082031 L 169.410156 66.105469 L 172.855469 60.125 L 176.304688 66.105469 L 179.75 72.082031 L 172.855469 72.082031 " fill-opacity="1" fill-rule="nonzero"/><path fill="#b0c7e8" d="M 202.515625 72.082031 L 195.625 72.082031 L 202.515625 60.125 L 209.410156 72.082031 L 202.515625 72.082031 " fill-opacity="1" fill-rule="nonzero"/><path fill="#b0c7e8" d="M 232.175781 72.082031 L 225.285156 72.082031 L 228.730469 66.105469 L 232.175781 60.125 L 235.621094 66.105469 L 239.070312 72.082031 L 232.175781 72.082031 " fill-opacity="1" fill-rule="nonzero"/><path fill="#b0c7e8" d="M 261.835938 72.082031 L 254.941406 72.082031 L 258.390625 66.105469 L 261.835938 60.125 L 265.285156 66.105469 L 268.730469 72.082031 L 261.835938 72.082031 " fill-opacity="1" fill-rule="nonzero"/><path fill="#b0c7e8" d="M 291.496094 72.082031 L 284.601562 72.082031 L 288.046875 66.105469 L 291.496094 60.125 L 294.941406 66.105469 L 298.390625 72.082031 L 291.496094 72.082031 " fill-opacity="1" fill-rule="nonzero"/><path fill="#b0c7e8" d="M 321.15625 72.082031 L 314.261719 72.082031 L 317.707031 66.105469 L 321.15625 60.125 L 324.601562 66.105469 L 328.046875 72.082031 L 321.15625 72.082031 " fill-opacity="1" fill-rule="nonzero"/><path fill="#b0c7e8" d="M 24.558594 71.777344 L 17.667969 71.777344 L 24.558594 59.816406 L 28.003906 65.796875 L 31.453125 71.777344 L 24.558594 71.777344 " fill-opacity="1" fill-rule="nonzero"/><path fill="#b0c7e8" d="M 54.21875 71.777344 L 47.324219 71.777344 L 50.769531 65.796875 L 54.21875 59.816406 L 61.113281 71.777344 L 54.21875 71.777344 " fill-opacity="1" fill-rule="nonzero"/><path fill="#b0c7e8" d="M 83.878906 71.777344 L 76.984375 71.777344 L 83.878906 59.816406 L 90.773438 71.777344 L 83.878906 71.777344 " fill-opacity="1" fill-rule="nonzero"/><path fill="#b0c7e8" d="M 113.539062 71.777344 L 106.644531 71.777344 L 110.089844 65.796875 L 113.539062 59.816406 L 120.429688 71.777344 L 113.539062 71.777344 " fill-opacity="1" fill-rule="nonzero"/><path fill="#b0c7e8" d="M 83.582031 256.546875 L 76.839844 256.546875 L 83.582031 244.851562 L 86.953125 250.699219 L 90.320312 256.546875 L 83.582031 256.546875 " fill-opacity="1" fill-rule="nonzero"/><path fill="#b0c7e8" d="M 53.921875 256.546875 L 47.179688 256.546875 L 53.921875 244.851562 L 60.664062 256.546875 L 53.921875 256.546875 " fill-opacity="1" fill-rule="nonzero"/><path fill="#b0c7e8" d="M 24.261719 256.546875 L 17.523438 256.546875 L 20.890625 250.699219 L 24.261719 244.851562 L 27.632812 250.699219 L 31 256.546875 L 24.261719 256.546875 " fill-opacity="1" fill-rule="nonzero"/><path fill="#b0c7e8" d="M 172.5625 256.546875 L 165.820312 256.546875 L 172.5625 244.851562 L 179.300781 256.546875 L 172.5625 256.546875 " fill-opacity="1" fill-rule="nonzero"/><path fill="#b0c7e8" d="M 202.21875 256.851562 L 195.480469 256.851562 L 198.847656 251.003906 L 202.21875 245.160156 L 205.589844 251.003906 L 208.960938 256.851562 L 202.21875 256.851562 " fill-opacity="1" fill-rule="nonzero"/><path fill="#b0c7e8" d="M 320.859375 256.851562 L 314.117188 256.851562 L 320.859375 245.160156 L 327.597656 256.851562 L 320.859375 256.851562 " fill-opacity="1" fill-rule="nonzero"/><path fill="#b0c7e8" d="M 231.878906 256.851562 L 225.136719 256.851562 L 228.507812 251.003906 L 231.878906 245.160156 L 235.25 251.003906 L 238.621094 256.851562 L 231.878906 256.851562 " fill-opacity="1" fill-rule="nonzero"/><path fill="#b0c7e8" d="M 291.199219 256.851562 L 284.457031 256.851562 L 287.828125 251.003906 L 291.199219 245.160156 L 294.570312 251.003906 L 297.941406 256.851562 L 291.199219 256.851562 " fill-opacity="1" fill-rule="nonzero"/><path fill="#b0c7e8" d="M 261.539062 256.851562 L 254.800781 256.851562 L 261.539062 245.160156 L 268.28125 256.851562 L 261.539062 256.851562 " fill-opacity="1" fill-rule="nonzero"/><path fill="#b0c7e8" d="M 113.242188 256.546875 L 106.5 256.546875 L 113.242188 244.851562 L 116.613281 250.699219 L 119.980469 256.546875 L 113.242188 256.546875 " fill-opacity="1" fill-rule="nonzero"/><path fill="#b0c7e8" d="M 142.902344 256.546875 L 136.160156 256.546875 L 142.902344 244.851562 L 149.640625 256.546875 L 142.902344 256.546875 " fill-opacity="1" fill-rule="nonzero"/><path fill="#b0c7e8" d="M 187.6875 56.160156 L 181.386719 56.160156 L 184.535156 50.695312 L 187.6875 45.230469 L 190.835938 50.695312 L 193.988281 56.160156 L 187.6875 56.160156 " fill-opacity="1" fill-rule="nonzero"/><path fill="#b0c7e8" d="M 335.984375 56.160156 L 329.683594 56.160156 L 332.835938 50.695312 L 335.984375 45.230469 L 342.285156 56.160156 L 335.984375 56.160156 " fill-opacity="1" fill-rule="nonzero"/><path fill="#b0c7e8" d="M 306.324219 56.160156 L 300.023438 56.160156 L 303.175781 50.695312 L 306.324219 45.230469 L 309.476562 50.695312 L 312.625 56.160156 L 306.324219 56.160156 " fill-opacity="1" fill-rule="nonzero"/><path fill="#b0c7e8" d="M 276.664062 56.160156 L 270.363281 56.160156 L 273.515625 50.695312 L 276.664062 45.230469 L 282.96875 56.160156 L 276.664062 56.160156 " fill-opacity="1" fill-rule="nonzero"/><path fill="#b0c7e8" d="M 247.007812 56.160156 L 240.707031 56.160156 L 243.855469 50.695312 L 247.007812 45.230469 L 250.15625 50.695312 L 253.308594 56.160156 L 247.007812 56.160156 " fill-opacity="1" fill-rule="nonzero"/><path fill="#b0c7e8" d="M 217.347656 56.160156 L 211.046875 56.160156 L 214.195312 50.695312 L 217.347656 45.230469 L 220.496094 50.695312 L 223.648438 56.160156 L 217.347656 56.160156 " fill-opacity="1" fill-rule="nonzero"/><path fill="#b0c7e8" d="M 128.367188 55.828125 L 122.097656 55.828125 L 125.230469 50.386719 L 128.367188 44.945312 L 134.640625 55.828125 L 128.367188 55.828125 " fill-opacity="1" fill-rule="nonzero"/><path fill="#b0c7e8" d="M 98.707031 55.828125 L 92.4375 55.828125 L 95.574219 50.386719 L 98.707031 44.945312 L 104.980469 55.828125 L 98.707031 55.828125 " fill-opacity="1" fill-rule="nonzero"/><path fill="#b0c7e8" d="M 39.390625 55.828125 L 33.117188 55.828125 L 39.390625 44.945312 L 45.660156 55.828125 L 39.390625 55.828125 " fill-opacity="1" fill-rule="nonzero"/><path fill="#b0c7e8" d="M 9.730469 55.828125 L 3.457031 55.828125 L 9.730469 44.945312 L 12.863281 50.386719 L 16 55.828125 L 9.730469 55.828125 " fill-opacity="1" fill-rule="nonzero"/><path fill="#b0c7e8" d="M 69.046875 55.828125 L 62.777344 55.828125 L 65.914062 50.386719 L 69.046875 44.945312 L 75.320312 55.828125 L 69.046875 55.828125 " fill-opacity="1" fill-rule="nonzero"/><path fill="#b0c7e8" d="M 158.027344 55.828125 L 151.753906 55.828125 L 158.027344 44.945312 L 161.164062 50.386719 L 164.296875 55.828125 L 158.027344 55.828125 " fill-opacity="1" fill-rule="nonzero"/><path fill="#b0c7e8" d="M 9.433594 271.433594 L 3.292969 271.433594 L 6.363281 266.105469 L 9.433594 260.78125 L 12.503906 266.105469 L 15.574219 271.433594 L 9.433594 271.433594 " fill-opacity="1" fill-rule="nonzero"/><path fill="#b0c7e8" d="M 39.09375 271.433594 L 32.953125 271.433594 L 36.023438 266.109375 L 39.09375 260.78125 L 42.160156 266.109375 L 45.230469 271.433594 L 39.09375 271.433594 " fill-opacity="1" fill-rule="nonzero"/><path fill="#b0c7e8" d="M 68.75 271.433594 L 62.613281 271.433594 L 65.679688 266.105469 L 68.75 260.78125 L 71.820312 266.105469 L 74.890625 271.433594 L 68.75 271.433594 " fill-opacity="1" fill-rule="nonzero"/><path fill="#b0c7e8" d="M 98.414062 271.433594 L 92.273438 271.433594 L 95.34375 266.105469 L 98.414062 260.78125 L 101.480469 266.105469 L 104.550781 271.433594 L 98.414062 271.433594 " fill-opacity="1" fill-rule="nonzero"/><path fill="#b0c7e8" d="M 128.070312 271.433594 L 121.929688 271.433594 L 125 266.105469 L 128.070312 260.78125 L 131.140625 266.105469 L 134.210938 271.433594 L 128.070312 271.433594 " fill-opacity="1" fill-rule="nonzero"/><path fill="#b0c7e8" d="M 157.730469 271.433594 L 151.589844 271.433594 L 154.660156 266.105469 L 157.730469 260.78125 L 160.800781 266.105469 L 163.871094 271.433594 L 157.730469 271.433594 " fill-opacity="1" fill-rule="nonzero"/><path fill="#b0c7e8" d="M 335.6875 271.742188 L 329.546875 271.742188 L 332.617188 266.414062 L 335.6875 261.089844 L 338.757812 266.414062 L 341.828125 271.742188 L 335.6875 271.742188 " fill-opacity="1" fill-rule="nonzero"/><path fill="#b0c7e8" d="M 306.03125 271.742188 L 299.890625 271.742188 L 302.960938 266.414062 L 306.03125 261.089844 L 309.101562 266.414062 L 312.167969 271.742188 L 306.03125 271.742188 " fill-opacity="1" fill-rule="nonzero"/><path fill="#b0c7e8" d="M 276.367188 271.742188 L 270.230469 271.742188 L 273.300781 266.414062 L 276.367188 261.089844 L 279.4375 266.414062 L 282.511719 271.742188 L 276.367188 271.742188 " fill-opacity="1" fill-rule="nonzero"/><path fill="#b0c7e8" d="M 246.710938 271.742188 L 240.570312 271.742188 L 243.640625 266.414062 L 246.710938 261.089844 L 249.78125 266.414062 L 252.851562 271.742188 L 246.710938 271.742188 " fill-opacity="1" fill-rule="nonzero"/><path fill="#b0c7e8" d="M 217.050781 271.742188 L 210.910156 271.742188 L 213.980469 266.414062 L 217.050781 261.089844 L 220.121094 266.414062 L 223.191406 271.742188 L 217.050781 271.742188 " fill-opacity="1" fill-rule="nonzero"/><path fill="#b0c7e8" d="M 187.390625 271.742188 L 181.25 271.742188 L 184.320312 266.414062 L 187.390625 261.089844 L 190.460938 266.414062 L 193.53125 271.742188 L 187.390625 271.742188 " fill-opacity="1" fill-rule="nonzero"/><path fill="#b0c7e8" d="M 202.515625 40.183594 L 196.871094 40.183594 L 199.695312 35.285156 L 202.515625 30.390625 L 205.339844 35.285156 L 208.160156 40.183594 L 202.515625 40.183594 " fill-opacity="1" fill-rule="nonzero"/><path fill="#b0c7e8" d="M 172.855469 40.183594 L 167.210938 40.183594 L 170.035156 35.285156 L 172.855469 30.390625 L 175.679688 35.285156 L 178.503906 40.183594 L 172.855469 40.183594 " fill-opacity="1" fill-rule="nonzero"/><path fill="#b0c7e8" d="M 143.199219 39.875 L 137.554688 39.875 L 143.199219 30.082031 L 148.839844 39.875 L 143.199219 39.875 " fill-opacity="1" fill-rule="nonzero"/><path fill="#b0c7e8" d="M 113.539062 39.875 L 107.894531 39.875 L 113.539062 30.082031 L 116.359375 34.980469 L 119.183594 39.875 L 113.539062 39.875 " fill-opacity="1" fill-rule="nonzero"/><path fill="#b0c7e8" d="M 83.878906 39.875 L 78.234375 39.875 L 83.878906 30.082031 L 89.523438 39.875 L 83.878906 39.875 " fill-opacity="1" fill-rule="nonzero"/><path fill="#b0c7e8" d="M 54.21875 39.875 L 48.574219 39.875 L 54.21875 30.082031 L 59.863281 39.875 L 54.21875 39.875 " fill-opacity="1" fill-rule="nonzero"/><path fill="#b0c7e8" d="M 24.558594 39.875 L 18.914062 39.875 L 24.558594 30.082031 L 30.203125 39.875 L 24.558594 39.875 " fill-opacity="1" fill-rule="nonzero"/><path fill="#b0c7e8" d="M 321.15625 40.183594 L 315.511719 40.183594 L 318.332031 35.285156 L 321.15625 30.390625 L 323.976562 35.285156 L 326.800781 40.183594 L 321.15625 40.183594 " fill-opacity="1" fill-rule="nonzero"/><path fill="#b0c7e8" d="M 291.496094 40.183594 L 285.851562 40.183594 L 288.671875 35.285156 L 291.496094 30.390625 L 294.316406 35.285156 L 297.140625 40.183594 L 291.496094 40.183594 " fill-opacity="1" fill-rule="nonzero"/><path fill="#b0c7e8" d="M 261.835938 40.183594 L 256.191406 40.183594 L 259.015625 35.285156 L 261.835938 30.390625 L 264.660156 35.285156 L 267.480469 40.183594 L 261.835938 40.183594 " fill-opacity="1" fill-rule="nonzero"/><path fill="#b0c7e8" d="M 232.175781 40.183594 L 226.53125 40.183594 L 229.355469 35.285156 L 232.175781 30.390625 L 235 35.285156 L 237.820312 40.183594 L 232.175781 40.183594 " fill-opacity="1" fill-rule="nonzero"/><path fill="#b0c7e8" d="M 172.5625 286.300781 L 167.042969 286.300781 L 169.800781 281.515625 L 172.5625 276.730469 L 178.078125 286.300781 L 172.5625 286.300781 " fill-opacity="1" fill-rule="nonzero"/><path fill="#b0c7e8" d="M 142.902344 286.300781 L 137.386719 286.300781 L 140.140625 281.515625 L 142.902344 276.730469 L 148.417969 286.300781 L 142.902344 286.300781 " fill-opacity="1" fill-rule="nonzero"/><path fill="#b0c7e8" d="M 113.242188 286.300781 L 107.722656 286.300781 L 110.484375 281.515625 L 113.242188 276.730469 L 118.757812 286.300781 L 113.242188 286.300781 " fill-opacity="1" fill-rule="nonzero"/><path fill="#b0c7e8" d="M 83.582031 286.300781 L 78.0625 286.300781 L 80.824219 281.515625 L 83.582031 276.730469 L 86.339844 281.515625 L 89.101562 286.300781 L 83.582031 286.300781 " fill-opacity="1" fill-rule="nonzero"/><path fill="#b0c7e8" d="M 53.921875 286.300781 L 48.40625 286.300781 L 53.921875 276.730469 L 59.4375 286.300781 L 53.921875 286.300781 " fill-opacity="1" fill-rule="nonzero"/><path fill="#b0c7e8" d="M 24.261719 286.300781 L 18.746094 286.300781 L 24.261719 276.730469 L 29.777344 286.300781 L 24.261719 286.300781 " fill-opacity="1" fill-rule="nonzero"/><path fill="#b0c7e8" d="M 202.21875 286.585938 L 196.730469 286.585938 L 199.472656 281.824219 L 202.21875 277.0625 L 207.710938 286.585938 L 202.21875 286.585938 " fill-opacity="1" fill-rule="nonzero"/><path fill="#b0c7e8" d="M 320.859375 286.582031 L 315.371094 286.582031 L 320.859375 277.0625 L 323.601562 281.824219 L 326.347656 286.582031 L 320.859375 286.582031 " fill-opacity="1" fill-rule="nonzero"/><path fill="#b0c7e8" d="M 291.199219 286.585938 L 285.710938 286.585938 L 288.457031 281.824219 L 291.199219 277.0625 L 293.945312 281.824219 L 296.6875 286.585938 L 291.199219 286.585938 " fill-opacity="1" fill-rule="nonzero"/><path fill="#b0c7e8" d="M 231.878906 286.585938 L 226.390625 286.585938 L 231.878906 277.0625 L 237.371094 286.585938 L 231.878906 286.585938 " fill-opacity="1" fill-rule="nonzero"/><path fill="#b0c7e8" d="M 261.539062 286.585938 L 256.050781 286.585938 L 258.792969 281.824219 L 261.539062 277.0625 L 267.03125 286.585938 L 261.539062 286.585938 " fill-opacity="1" fill-rule="nonzero"/><path fill="#b0c7e8" d="M 128.367188 23.859375 L 123.421875 23.859375 L 128.367188 15.28125 L 133.3125 23.859375 L 128.367188 23.859375 " fill-opacity="1" fill-rule="nonzero"/><path fill="#b0c7e8" d="M 98.710938 23.859375 L 93.765625 23.859375 L 98.710938 15.28125 L 103.652344 23.859375 L 98.710938 23.859375 " fill-opacity="1" fill-rule="nonzero"/><path fill="#b0c7e8" d="M 69.046875 23.859375 L 64.101562 23.859375 L 69.046875 15.28125 L 73.992188 23.859375 L 69.046875 23.859375 " fill-opacity="1" fill-rule="nonzero"/><path fill="#b0c7e8" d="M 39.390625 23.859375 L 34.445312 23.859375 L 39.390625 15.28125 L 41.859375 19.570312 L 44.332031 23.859375 L 39.390625 23.859375 " fill-opacity="1" fill-rule="nonzero"/><path fill="#b0c7e8" d="M 9.726562 23.859375 L 4.78125 23.859375 L 9.726562 15.28125 L 12.199219 19.570312 L 14.675781 23.859375 L 9.726562 23.859375 " fill-opacity="1" fill-rule="nonzero"/><path fill="#b0c7e8" d="M 217.347656 24.167969 L 212.402344 24.167969 L 217.347656 15.589844 L 222.292969 24.167969 L 217.347656 24.167969 " fill-opacity="1" fill-rule="nonzero"/><path fill="#b0c7e8" d="M 335.984375 24.167969 L 331.039062 24.167969 L 335.984375 15.589844 L 340.929688 24.167969 L 335.984375 24.167969 " fill-opacity="1" fill-rule="nonzero"/><path fill="#b0c7e8" d="M 306.324219 24.167969 L 301.378906 24.167969 L 303.851562 19.878906 L 306.324219 15.585938 L 308.796875 19.878906 L 311.269531 24.167969 L 306.324219 24.167969 " fill-opacity="1" fill-rule="nonzero"/><path fill="#b0c7e8" d="M 276.664062 24.167969 L 271.722656 24.167969 L 274.195312 19.878906 L 276.664062 15.589844 L 281.609375 24.167969 L 276.664062 24.167969 " fill-opacity="1" fill-rule="nonzero"/><path fill="#b0c7e8" d="M 247.007812 24.167969 L 242.0625 24.167969 L 247.007812 15.589844 L 249.476562 19.878906 L 251.949219 24.167969 L 247.007812 24.167969 " fill-opacity="1" fill-rule="nonzero"/><path fill="#b0c7e8" d="M 187.6875 24.167969 L 182.742188 24.167969 L 187.6875 15.589844 L 192.632812 24.167969 L 187.6875 24.167969 " fill-opacity="1" fill-rule="nonzero"/><path fill="#b0c7e8" d="M 158.027344 23.859375 L 153.082031 23.859375 L 158.027344 15.28125 L 162.972656 23.859375 L 158.027344 23.859375 " fill-opacity="1" fill-rule="nonzero"/><path fill="#b0c7e8" d="M 128.070312 301.113281 L 123.242188 301.113281 L 125.65625 296.925781 L 128.070312 292.734375 L 130.484375 296.925781 L 132.898438 301.113281 L 128.070312 301.113281 " fill-opacity="1" fill-rule="nonzero"/><path fill="#b0c7e8" d="M 68.75 301.113281 L 63.921875 301.113281 L 66.335938 296.925781 L 68.75 292.734375 L 71.167969 296.925781 L 73.582031 301.113281 L 68.75 301.113281 " fill-opacity="1" fill-rule="nonzero"/><path fill="#b0c7e8" d="M 98.414062 301.113281 L 93.582031 301.113281 L 95.996094 296.925781 L 98.414062 292.734375 L 103.242188 301.113281 L 98.414062 301.113281 " fill-opacity="1" fill-rule="nonzero"/><path fill="#b0c7e8" d="M 157.730469 301.113281 L 152.902344 301.113281 L 155.316406 296.925781 L 157.730469 292.734375 L 160.144531 296.925781 L 162.558594 301.113281 L 157.730469 301.113281 " fill-opacity="1" fill-rule="nonzero"/><path fill="#b0c7e8" d="M 39.09375 301.113281 L 34.261719 301.113281 L 36.679688 296.925781 L 39.09375 292.734375 L 41.507812 296.925781 L 43.921875 301.113281 L 39.09375 301.113281 " fill-opacity="1" fill-rule="nonzero"/><path fill="#b0c7e8" d="M 9.433594 301.113281 L 4.605469 301.113281 L 9.433594 292.734375 L 11.847656 296.925781 L 14.261719 301.113281 L 9.433594 301.113281 " fill-opacity="1" fill-rule="nonzero"/><path fill="#b0c7e8" d="M 246.710938 301.386719 L 241.921875 301.386719 L 244.316406 297.234375 L 246.710938 293.078125 L 249.105469 297.234375 L 251.5 301.386719 L 246.710938 301.386719 " fill-opacity="1" fill-rule="nonzero"/><path fill="#b0c7e8" d="M 276.367188 301.386719 L 271.582031 301.386719 L 276.367188 293.078125 L 278.765625 297.234375 L 281.160156 301.386719 L 276.367188 301.386719 " fill-opacity="1" fill-rule="nonzero"/><path fill="#b0c7e8" d="M 187.390625 301.386719 L 182.601562 301.386719 L 184.996094 297.234375 L 187.390625 293.078125 L 189.785156 297.234375 L 192.179688 301.386719 L 187.390625 301.386719 " fill-opacity="1" fill-rule="nonzero"/><path fill="#b0c7e8" d="M 335.6875 301.386719 L 330.898438 301.386719 L 333.292969 297.234375 L 335.6875 293.078125 L 340.480469 301.386719 L 335.6875 301.386719 " fill-opacity="1" fill-rule="nonzero"/><path fill="#b0c7e8" d="M 306.03125 301.386719 L 301.238281 301.386719 L 306.03125 293.078125 L 308.421875 297.234375 L 310.820312 301.386719 L 306.03125 301.386719 " fill-opacity="1" fill-rule="nonzero"/><path fill="#b0c7e8" d="M 217.050781 301.386719 L 212.261719 301.386719 L 214.65625 297.234375 L 217.050781 293.078125 L 221.839844 301.386719 L 217.050781 301.386719 " fill-opacity="1" fill-rule="nonzero"/><path fill="#b0c7e8" d="M 202.21875 316.226562 L 198.085938 316.226562 L 202.21875 309.054688 L 204.285156 312.640625 L 206.355469 316.226562 L 202.21875 316.226562 " fill-opacity="1" fill-rule="nonzero"/><path fill="#b0c7e8" d="M 172.5625 315.917969 L 168.425781 315.917969 L 172.5625 308.746094 L 174.628906 312.332031 L 176.699219 315.917969 L 172.5625 315.917969 " fill-opacity="1" fill-rule="nonzero"/><path fill="#b0c7e8" d="M 142.902344 315.917969 L 138.765625 315.917969 L 140.832031 312.332031 L 142.902344 308.746094 L 147.035156 315.917969 L 142.902344 315.917969 " fill-opacity="1" fill-rule="nonzero"/><path fill="#b0c7e8" d="M 113.242188 315.917969 L 109.109375 315.917969 L 113.242188 308.746094 L 117.375 315.917969 L 113.242188 315.917969 " fill-opacity="1" fill-rule="nonzero"/><path fill="#b0c7e8" d="M 83.582031 315.917969 L 79.449219 315.917969 L 83.582031 308.746094 L 87.714844 315.917969 L 83.582031 315.917969 " fill-opacity="1" fill-rule="nonzero"/><path fill="#b0c7e8" d="M 53.921875 315.917969 L 49.789062 315.917969 L 51.855469 312.332031 L 53.921875 308.75 L 55.988281 312.332031 L 58.054688 315.917969 L 53.921875 315.917969 " fill-opacity="1" fill-rule="nonzero"/><path fill="#b0c7e8" d="M 24.261719 315.917969 L 20.128906 315.917969 L 22.195312 312.332031 L 24.261719 308.75 L 26.328125 312.332031 L 28.394531 315.917969 L 24.261719 315.917969 " fill-opacity="1" fill-rule="nonzero"/><path fill="#b0c7e8" d="M 231.878906 316.226562 L 227.746094 316.226562 L 231.878906 309.054688 L 236.011719 316.226562 L 231.878906 316.226562 " fill-opacity="1" fill-rule="nonzero"/><g clip-path="url(#55e515d1c0)"><path fill="#b0c7e8" d="M 291.496094 8.058594 L 287.359375 8.058594 L 289.425781 4.472656 L 291.496094 0.882812 L 293.5625 4.472656 L 295.628906 8.058594 L 291.496094 8.058594 " fill-opacity="1" fill-rule="nonzero"/></g><path fill="#b0c7e8" d="M 261.539062 316.226562 L 257.40625 316.226562 L 261.539062 309.054688 L 265.671875 316.226562 L 261.539062 316.226562 " fill-opacity="1" fill-rule="nonzero"/><path fill="#b0c7e8" d="M 291.199219 316.226562 L 287.066406 316.226562 L 291.199219 309.054688 L 293.265625 312.640625 L 295.335938 316.226562 L 291.199219 316.226562 " fill-opacity="1" fill-rule="nonzero"/><path fill="#b0c7e8" d="M 320.859375 316.226562 L 316.726562 316.226562 L 320.859375 309.054688 L 324.992188 316.226562 L 320.859375 316.226562 " fill-opacity="1" fill-rule="nonzero"/><g clip-path="url(#dae92378b9)"><path fill="#b0c7e8" d="M 24.558594 7.746094 L 20.425781 7.746094 L 24.558594 0.574219 L 28.691406 7.746094 L 24.558594 7.746094 " fill-opacity="1" fill-rule="nonzero"/></g><g clip-path="url(#56f447e5bc)"><path fill="#b0c7e8" d="M 54.21875 7.746094 L 50.085938 7.746094 L 52.148438 4.160156 L 54.21875 0.574219 L 58.351562 7.746094 L 54.21875 7.746094 " fill-opacity="1" fill-rule="nonzero"/></g><g clip-path="url(#1766ee7cb0)"><path fill="#b0c7e8" d="M 83.878906 7.746094 L 79.742188 7.746094 L 83.878906 0.574219 L 88.011719 7.746094 L 83.878906 7.746094 " fill-opacity="1" fill-rule="nonzero"/></g><g clip-path="url(#9965e42950)"><path fill="#b0c7e8" d="M 113.539062 7.746094 L 109.40625 7.746094 L 113.539062 0.574219 L 117.671875 7.746094 L 113.539062 7.746094 " fill-opacity="1" fill-rule="nonzero"/></g><g clip-path="url(#f38960a643)"><path fill="#b0c7e8" d="M 143.199219 7.746094 L 139.066406 7.746094 L 143.199219 0.574219 L 147.332031 7.746094 L 143.199219 7.746094 " fill-opacity="1" fill-rule="nonzero"/></g><g clip-path="url(#19c0357b8a)"><path fill="#b0c7e8" d="M 172.855469 8.054688 L 168.722656 8.054688 L 170.789062 4.46875 L 172.855469 0.886719 L 174.921875 4.46875 L 176.992188 8.054688 L 172.855469 8.054688 " fill-opacity="1" fill-rule="nonzero"/></g><g clip-path="url(#b3fd93b94a)"><path fill="#b0c7e8" d="M 202.515625 8.054688 L 198.382812 8.054688 L 200.449219 4.46875 L 202.515625 0.886719 L 204.582031 4.46875 L 206.648438 8.054688 L 202.515625 8.054688 " fill-opacity="1" fill-rule="nonzero"/></g><g clip-path="url(#a783623627)"><path fill="#b0c7e8" d="M 232.175781 8.054688 L 228.042969 8.054688 L 230.109375 4.46875 L 232.175781 0.886719 L 234.242188 4.46875 L 236.308594 8.054688 L 232.175781 8.054688 " fill-opacity="1" fill-rule="nonzero"/></g><g clip-path="url(#ac9ff6d1fd)"><path fill="#b0c7e8" d="M 261.835938 8.054688 L 257.703125 8.054688 L 259.769531 4.46875 L 261.835938 0.886719 L 263.902344 4.46875 L 265.96875 8.054688 L 261.835938 8.054688 " fill-opacity="1" fill-rule="nonzero"/></g><g clip-path="url(#b8f3b5bc86)"><path fill="#b0c7e8" d="M 321.15625 8.054688 L 317.019531 8.054688 L 319.089844 4.46875 L 321.15625 0.882812 L 325.289062 8.054688 L 321.15625 8.054688 " fill-opacity="1" fill-rule="nonzero"/></g><g clip-path="url(#26a60d0cf6)"><path fill="#b0c7e8" d="M 9.433594 330.660156 L 6.066406 330.660156 L 7.75 327.742188 L 9.433594 324.820312 L 11.117188 327.742188 L 12.800781 330.660156 L 9.433594 330.660156 " fill-opacity="1" fill-rule="nonzero"/></g><g clip-path="url(#48243e068f)"><path fill="#b0c7e8" d="M 39.09375 330.664062 L 35.726562 330.664062 L 39.09375 324.820312 L 40.777344 327.742188 L 42.457031 330.664062 L 39.09375 330.664062 " fill-opacity="1" fill-rule="nonzero"/></g><g clip-path="url(#93a84636b3)"><path fill="#b0c7e8" d="M 68.75 330.664062 L 65.382812 330.664062 L 67.070312 327.742188 L 68.75 324.820312 L 72.117188 330.664062 L 68.75 330.664062 " fill-opacity="1" fill-rule="nonzero"/></g><g clip-path="url(#eb7bf37ee0)"><path fill="#b0c7e8" d="M 98.414062 330.660156 L 95.046875 330.660156 L 96.726562 327.742188 L 98.414062 324.820312 L 100.09375 327.742188 L 101.777344 330.660156 L 98.414062 330.660156 " fill-opacity="1" fill-rule="nonzero"/></g><g clip-path="url(#2ad208d751)"><path fill="#b0c7e8" d="M 128.070312 330.660156 L 124.707031 330.660156 L 126.386719 327.742188 L 128.070312 324.820312 L 129.753906 327.742188 L 131.4375 330.660156 L 128.070312 330.660156 " fill-opacity="1" fill-rule="nonzero"/></g><g clip-path="url(#e1160c9b8e)"><path fill="#b0c7e8" d="M 157.730469 330.660156 L 154.363281 330.660156 L 156.046875 327.742188 L 157.730469 324.820312 L 159.414062 327.742188 L 161.097656 330.660156 L 157.730469 330.660156 " fill-opacity="1" fill-rule="nonzero"/></g><g clip-path="url(#ee24434090)"><path fill="#b0c7e8" d="M 187.390625 330.96875 L 184.023438 330.96875 L 185.707031 328.050781 L 187.390625 325.128906 L 189.074219 328.050781 L 190.757812 330.96875 L 187.390625 330.96875 " fill-opacity="1" fill-rule="nonzero"/></g><g clip-path="url(#0caa9f4e20)"><path fill="#b0c7e8" d="M 217.050781 330.96875 L 213.683594 330.96875 L 217.050781 325.128906 L 218.734375 328.050781 L 220.417969 330.96875 L 217.050781 330.96875 " fill-opacity="1" fill-rule="nonzero"/></g><g clip-path="url(#3dd204c256)"><path fill="#b0c7e8" d="M 246.710938 330.96875 L 243.34375 330.96875 L 245.027344 328.050781 L 246.710938 325.128906 L 248.394531 328.050781 L 250.074219 330.96875 L 246.710938 330.96875 " fill-opacity="1" fill-rule="nonzero"/></g><g clip-path="url(#1a11b025ac)"><path fill="#b0c7e8" d="M 276.367188 330.96875 L 273.003906 330.96875 L 276.367188 325.128906 L 278.050781 328.050781 L 279.738281 330.96875 L 276.367188 330.96875 " fill-opacity="1" fill-rule="nonzero"/></g><g clip-path="url(#deb705e2f4)"><path fill="#b0c7e8" d="M 306.03125 330.96875 L 302.664062 330.96875 L 304.347656 328.050781 L 306.03125 325.128906 L 309.394531 330.96875 L 306.03125 330.96875 " fill-opacity="1" fill-rule="nonzero"/></g><g clip-path="url(#ae7e7af4e0)"><path fill="#b0c7e8" d="M 335.6875 330.96875 L 332.324219 330.96875 L 334.003906 328.050781 L 335.6875 325.128906 L 337.371094 328.050781 L 339.054688 330.96875 L 335.6875 330.96875 " fill-opacity="1" fill-rule="nonzero"/></g></g></g></g></g></svg>